<?xml version="1.0" standalone="no"?>
<!DOCTYPE svg PUBLIC "-//W3C//DTD SVG 20010904//EN"
 "http://www.w3.org/TR/2001/REC-SVG-20010904/DTD/svg10.dtd">
<svg version="1.0" xmlns="http://www.w3.org/2000/svg"
 width="800.000000pt" height="800.000000pt" viewBox="0 0 800.000000 800.000000"
 preserveAspectRatio="xMidYMid meet">
<metadata>
Created by potrace 1.14, written by Peter Selinger 2001-2017
</metadata>
<g transform="translate(0.000000,800.000000) scale(0.100000,-0.100000)"
fill="#000000" stroke="none">
<path d="M7885 7563 c-60 -12 -182 -38 -270 -57 -88 -19 -277 -60 -420 -91
-143 -31 -318 -69 -390 -85 -71 -16 -182 -40 -245 -54 -228 -49 -490 -106
-760 -166 -151 -34 -351 -79 -445 -99 -448 -100 -513 -116 -508 -123 2 -5 14
-6 24 -3 11 4 26 1 34 -5 8 -6 23 -9 35 -5 11 4 20 2 20 -4 0 -6 7 -11 15 -11
9 0 18 -7 21 -15 9 -22 26 -18 48 11 15 22 16 28 5 35 -10 6 -4 10 21 15 29 6
31 9 15 15 -15 6 -16 8 -4 8 22 1 69 -37 69 -55 0 -9 11 -14 35 -14 29 0 37
-5 45 -26 6 -14 10 -31 10 -38 0 -24 -26 -47 -55 -50 -18 -2 -34 -11 -40 -24
-7 -12 -12 -149 -13 -364 -1 -188 -5 -377 -8 -418 -4 -41 -6 -117 -6 -167 1
-75 -2 -93 -13 -93 -8 0 -15 5 -15 10 0 6 5 10 10 10 6 0 10 5 10 11 0 5 -4 8
-8 5 -4 -2 -9 47 -9 110 -1 63 -6 120 -11 127 -14 16 -17 73 -7 121 5 23 3 58
-3 85 -6 25 -13 58 -16 73 -3 14 -16 39 -29 55 -13 15 -27 37 -31 47 -5 16 -4
17 9 6 32 -27 15 22 -20 57 -19 19 -32 39 -29 44 3 5 1 9 -4 9 -6 0 -13 16
-16 35 -4 19 -11 35 -16 35 -5 0 -5 11 2 25 9 19 14 22 25 14 28 -24 13 13
-23 54 l-35 42 68 12 c37 6 74 12 80 12 10 1 13 -27 13 -106 1 -134 2 -155 12
-145 4 4 10 51 12 104 2 52 9 105 15 116 15 28 14 42 -4 42 -8 0 -15 7 -15 15
0 20 -41 19 -122 -1 -94 -24 -123 -24 -144 0 -10 12 -17 22 -16 24 9 10 -1 33
-12 29 -11 -4 -13 3 -10 34 4 40 -1 45 -26 29 -13 -9 -13 -10 0 -10 13 0 13
-1 0 -10 -20 -12 -34 24 -20 50 6 12 6 21 1 25 -5 3 -13 -4 -16 -16 -6 -19 -7
-20 -21 -2 -13 17 -13 17 -14 -2 0 -14 -7 -21 -19 -21 -11 0 -18 3 -15 7 2 4
-3 9 -11 13 -10 3 -15 -1 -15 -11 0 -11 -12 -4 -38 23 -21 21 -74 64 -117 94
-85 58 -107 79 -98 94 4 5 1 6 -5 2 -7 -4 -12 -2 -12 3 0 6 -6 11 -14 11 -8 0
-21 8 -28 18 -7 10 -20 22 -28 27 -13 8 -13 7 -1 -8 19 -24 -2 -21 -30 4 -15
12 -18 19 -8 16 9 -3 22 -1 30 4 10 6 3 9 -21 9 -20 0 -42 6 -48 12 -7 7 -18
13 -25 14 -7 0 -20 2 -29 2 -10 1 -18 7 -18 13 0 5 4 7 10 4 6 -3 7 1 4 10 -6
14 -8 14 -20 -2 -11 -15 -13 -15 -8 -2 4 13 -3 18 -31 23 -19 4 -33 11 -30 15
6 10 -19 21 -43 20 -10 -1 -7 -4 8 -9 18 -6 20 -8 7 -9 -11 -1 -15 -6 -11 -12
5 -8 1 -8 -14 0 -26 14 -45 14 -37 1 10 -16 -11 -12 -25 5 -11 13 -8 15 19 15
17 0 31 5 31 10 0 10 -34 15 -73 12 -11 -1 -15 2 -11 9 7 13 -69 5 -112 -11
-33 -13 -34 -13 -34 5 0 17 -11 20 -25 6 -14 -12 -111 -32 -128 -25 -8 3 -43
-2 -77 -11 -34 -9 -69 -14 -76 -11 -8 3 -14 1 -14 -4 0 -5 -6 -7 -14 -4 -8 3
-17 1 -20 -5 -4 -6 -14 -7 -23 -4 -12 5 -15 2 -10 -9 4 -11 -1 -18 -14 -21
-17 -5 -18 -3 -7 10 12 15 9 16 -25 10 -26 -4 -35 -2 -31 5 4 7 2 8 -5 4 -6
-4 -24 -10 -39 -12 -15 -3 -42 -14 -61 -25 -25 -15 -31 -16 -22 -5 29 35 -30
10 -72 -30 -23 -23 -51 -44 -62 -47 -14 -5 -11 0 10 18 32 26 28 32 -8 14 -21
-10 -21 -9 2 10 13 12 30 21 39 21 8 0 13 3 9 6 -8 8 -107 -28 -107 -39 0 -5
-6 -7 -12 -4 -7 2 -29 -14 -50 -35 -20 -22 -42 -38 -50 -36 -22 8 -102 -151
-99 -197 1 -23 0 -27 -8 -15 -9 13 -11 13 -11 -2 0 -9 4 -19 9 -22 5 -4 12
-24 16 -46 4 -22 10 -40 15 -40 4 0 6 -9 3 -19 -3 -13 -11 -18 -21 -14 -16 4
-16 4 0 -9 12 -10 14 -19 7 -31 -6 -9 -7 -22 -4 -27 3 -6 2 -10 -4 -10 -5 0
-13 -9 -16 -20 -4 -11 -19 -32 -33 -47 -15 -14 -21 -22 -15 -19 9 5 11 2 7 -8
-3 -9 -10 -16 -14 -16 -9 0 -21 -30 -17 -42 4 -13 -37 -36 -53 -30 -11 4 -10
-1 5 -19 11 -13 25 -27 30 -31 6 -5 3 -14 -8 -25 -17 -17 -18 -17 -11 2 7 17
6 18 -8 5 -9 -8 -14 -18 -12 -22 2 -3 -1 -8 -8 -11 -7 -2 -3 -2 9 -1 27 5 41
-14 17 -23 -22 -8 -50 10 -46 31 4 23 -15 20 -28 -4 -10 -18 -6 -21 33 -32 43
-11 44 -12 30 -38 -20 -42 -60 -80 -83 -80 -26 0 -26 -14 2 -34 22 -15 22 -16
5 -30 -13 -10 -15 -15 -5 -19 19 -6 -45 -23 -222 -58 -259 -51 -347 -67 -535
-99 -374 -65 -465 -81 -650 -117 -181 -34 -219 -48 -192 -65 9 -6 8 -11 -3
-19 -10 -6 -45 -8 -100 -3 -142 12 -238 8 -251 -9 -4 -5 -1 -32 5 -60 11 -51
12 -52 54 -58 23 -3 42 -2 42 3 0 4 -10 8 -23 8 -31 0 -47 18 -47 52 0 25 3
28 34 28 157 0 666 -95 650 -121 -2 -4 -26 -11 -52 -14 -26 -4 -60 -11 -75
-17 -23 -9 -26 -13 -13 -20 8 -5 18 -25 22 -46 12 -74 47 -207 56 -219 15 -18
23 -193 9 -193 -7 0 -11 -30 -11 -95 0 -52 4 -95 9 -95 5 0 11 6 14 13 3 9 41
12 147 11 136 -1 145 -3 162 -24 15 -18 24 -21 58 -15 25 4 40 12 40 21 0 8
10 15 23 15 18 1 18 2 4 6 -11 3 -16 11 -13 19 3 8 2 13 -3 9 -5 -3 -9 21 -9
53 1 33 -3 65 -7 72 -5 8 -4 11 2 7 6 -4 14 0 17 9 9 25 7 27 -11 13 -9 -8
-14 -9 -10 -3 4 7 -4 19 -17 28 -21 13 -26 13 -36 0 -7 -8 -29 -14 -49 -14
-20 0 -73 -2 -118 -5 l-83 -5 0 70 c0 53 -3 70 -14 70 -24 0 -39 26 -26 49 12
23 68 29 87 10 8 -8 19 -5 40 10 49 37 86 3 102 -91 l9 -53 1 62 c0 34 -4 63
-9 65 -15 5 0 99 17 105 19 8 40 -13 47 -48 6 -29 7 -30 28 -15 12 9 32 16 45
16 12 0 26 8 32 17 5 10 24 22 43 28 24 9 34 18 36 38 4 36 25 51 51 37 16 -8
21 -21 22 -58 1 -26 3 -39 6 -30 3 13 9 16 21 9 9 -5 37 -12 61 -16 54 -9 63
2 54 73 -6 50 -5 52 18 52 45 0 52 -13 50 -89 -2 -61 1 -72 16 -77 10 -3 30
-12 46 -20 26 -15 27 -14 27 9 0 14 -7 28 -17 32 -17 6 -17 7 0 16 9 6 17 19
17 29 0 16 -7 20 -31 20 -23 0 -30 4 -27 17 5 26 55 34 135 22 59 -10 74 -15
79 -33 4 -11 16 -33 27 -48 l20 -27 21 32 c29 43 67 47 95 10 11 -15 28 -35
36 -45 14 -13 14 -19 3 -37 -7 -12 -16 -21 -20 -21 -5 0 -8 -7 -8 -16 0 -8 -4
-13 -8 -10 -5 3 -9 -1 -9 -9 0 -8 3 -15 7 -15 11 0 -1 -54 -14 -62 -21 -14
-56 -8 -77 13 l-20 20 -20 -25 c-14 -17 -30 -26 -50 -26 -28 0 -40 -15 -19
-22 6 -2 12 -43 13 -96 1 -50 5 -92 10 -92 4 0 7 -7 7 -15 0 -8 -5 -15 -11
-15 -8 0 -7 -5 2 -16 8 -10 22 -14 41 -10 32 6 43 -6 40 -48 -3 -31 -37 -77
-56 -75 -32 4 -46 -3 -52 -26 -4 -15 -13 -25 -24 -25 -13 0 -17 6 -13 19 9 34
-48 48 -119 30 -35 -9 -53 -29 -26 -29 8 0 9 -3 2 -10 -5 -5 -45 -14 -88 -20
-43 -6 -89 -15 -102 -20 -13 -5 -52 -12 -86 -16 l-63 -6 -17 42 c-10 23 -22
39 -27 35 -6 -3 -8 0 -5 9 4 11 -7 15 -55 18 -34 1 -66 2 -71 0 -6 -2 -10 -28
-10 -58 l0 -54 -44 0 c-24 0 -48 6 -55 13 -15 19 -67 19 -82 1 -17 -20 -24
-18 -63 21 -20 19 -40 35 -46 35 -5 0 -10 17 -10 38 0 20 -7 45 -14 55 -12 15
-14 6 -20 -70 -4 -49 -6 -97 -5 -108 1 -22 7 -137 14 -265 3 -47 9 -119 15
-160 6 -41 7 -106 4 -143 -6 -57 -3 -80 17 -138 21 -63 26 -69 51 -69 40 0 46
20 6 21 -27 1 -29 3 -8 6 14 3 39 17 55 33 26 24 40 28 114 34 56 4 90 11 102
22 16 14 18 14 27 -2 8 -15 22 -18 69 -17 61 2 86 -9 97 -43 3 -11 22 -27 41
-34 19 -8 35 -16 35 -20 0 -9 -225 -29 -413 -36 -92 -4 -170 -11 -173 -15 -5
-8 2 -186 22 -556 l6 -113 85 0 c46 0 93 -5 104 -10 29 -16 25 -79 -11 -150
l-30 -60 -50 0 -50 0 0 -64 c0 -35 3 -78 6 -95 6 -30 8 -31 63 -31 43 1 62 6
84 24 l29 23 -12 77 c-13 87 -8 116 22 116 40 0 224 -42 268 -61 61 -27 80
-47 80 -84 0 -76 -170 -160 -487 -241 -188 -48 -523 -95 -856 -120 -75 -6 -85
-9 -70 -20 10 -7 29 -14 43 -14 23 -1 23 -2 5 -10 -17 -7 -16 -9 10 -10 17 -1
24 -4 18 -7 -16 -6 -17 -23 -3 -23 6 0 35 -18 65 -40 48 -36 54 -45 64 -92 5
-29 15 -141 21 -248 13 -232 36 -413 56 -453 14 -27 18 -28 57 -21 53 10 61
10 174 1 l92 -8 10 33 c5 18 33 98 61 178 29 80 56 162 61 182 13 55 82 139
224 276 137 131 210 185 385 284 140 78 709 363 715 357 2 -2 -19 -33 -46 -68
-51 -66 -57 -89 -40 -148 8 -28 164 -295 243 -416 15 -23 32 -51 37 -62 15
-33 51 -243 45 -260 -3 -8 -2 -15 4 -15 5 0 12 -14 16 -32 7 -35 32 -68 52
-68 7 0 14 -5 16 -11 2 -7 19 -17 38 -23 19 -7 34 -18 32 -25 -1 -7 2 -10 7
-7 5 4 12 2 16 -4 4 -6 11 -8 16 -4 11 6 89 -26 89 -38 0 -4 10 -8 23 -8 12 0
33 -7 46 -16 18 -13 37 -15 92 -10 45 5 69 3 69 -4 0 -5 7 -10 15 -10 8 0 15
7 15 15 0 8 9 15 21 15 11 0 18 4 15 8 -7 12 45 13 60 1 8 -6 14 -8 14 -3 0 5
9 -2 20 -16 l19 -25 -4 24 c-2 13 2 33 10 45 11 14 15 16 15 5 0 -17 46 -24
55 -9 3 6 1 10 -4 10 -6 0 -11 4 -11 9 0 4 15 3 34 -3 19 -6 32 -14 29 -19 -3
-4 15 -6 39 -3 23 2 47 5 52 5 5 1 3 8 -4 16 -11 13 -10 14 6 8 17 -6 18 -5 4
12 -8 10 -9 16 -3 11 7 -4 23 -2 35 4 21 10 21 10 5 -3 -24 -20 -21 -27 13
-27 20 0 30 5 30 15 0 8 10 16 23 17 12 1 31 3 42 4 11 1 26 2 33 3 7 1 10 6
7 11 -4 6 -16 8 -28 5 -20 -5 -20 -5 -4 6 11 6 32 9 48 5 20 -4 31 -1 38 12 6
9 11 12 11 7 0 -6 19 -9 45 -7 38 3 45 7 45 26 0 16 2 18 9 7 8 -12 14 -13 36
-3 15 7 31 10 36 6 5 -3 12 2 15 10 3 9 14 16 23 16 13 0 13 -2 2 -9 -9 -6 -5
-8 13 -8 15 0 29 4 33 10 4 6 0 8 -11 4 -10 -4 -15 -3 -11 3 5 9 120 27 139
21 5 -1 13 4 17 10 6 10 11 10 22 1 12 -10 16 -10 20 0 2 7 33 22 68 32 35 11
69 23 74 26 20 13 104 32 114 26 6 -4 9 -1 5 7 -3 8 2 17 11 21 19 7 38 -1 30
-14 -3 -4 2 -11 10 -14 13 -5 14 -2 4 15 -16 31 7 52 27 25 8 -11 14 -15 14
-9 0 6 8 10 17 9 10 -2 33 3 50 11 19 8 33 9 33 3 0 -5 8 -6 17 -3 15 6 14 7
-3 13 -10 4 -25 5 -33 2 -10 -4 -12 -1 -6 9 5 8 -3 4 -16 -7 -23 -21 -49 -22
-49 -3 0 4 6 6 14 3 10 -4 14 1 12 19 -2 19 1 23 15 20 11 -3 21 1 25 11 3 9
12 16 20 16 8 0 14 5 14 10 0 6 7 10 15 10 9 0 18 7 21 15 4 8 10 12 16 9 5
-3 16 4 25 15 10 16 21 20 36 15 22 -6 22 -6 2 10 -18 14 -18 15 -2 16 9 0 17
4 17 8 0 12 -23 39 -36 43 -6 2 -1 15 12 29 24 24 24 24 24 3 0 -12 5 -25 10
-28 8 -5 7 -11 -1 -21 -17 -21 5 -17 31 6 13 11 27 20 32 20 5 0 7 4 4 8 -8
14 73 97 91 94 14 -3 15 -1 4 11 -8 11 -9 17 -1 22 6 3 8 10 6 14 -3 4 4 14
15 22 11 8 27 28 35 44 7 17 18 37 23 45 34 58 72 179 80 257 0 6 9 14 19 16
14 4 14 6 -5 12 -20 6 -28 25 -25 56 0 3 -10 18 -24 35 l-25 29 21 -40 c13
-25 20 -58 19 -90 -1 -58 -12 -95 -23 -77 -10 17 -26 15 -20 -3 4 -8 12 -15
20 -15 8 0 14 -4 14 -8 0 -15 -24 -32 -44 -32 -18 0 -19 2 -6 11 13 9 13 10 0
6 -10 -3 -14 -15 -14 -36 1 -17 -1 -31 -5 -31 -11 0 -11 -39 1 -46 6 -4 9 -1
6 7 -3 8 1 20 9 27 7 7 13 22 13 33 0 10 5 19 10 19 6 0 10 -9 10 -20 0 -11
-4 -20 -10 -20 -5 0 -10 -11 -10 -24 0 -13 -7 -29 -15 -36 -10 -9 -15 -9 -15
-1 0 6 -9 11 -19 11 -17 0 -18 -4 -11 -30 6 -21 5 -30 -3 -30 -9 0 -9 -2 -1
-8 16 -10 -2 -52 -22 -52 -10 0 -14 -3 -11 -6 3 -4 2 -14 -3 -24 -6 -12 -18
-15 -40 -12 -30 4 -37 26 -9 28 8 1 17 2 21 3 4 0 0 13 -8 29 -13 25 -12 27 6
30 30 5 25 30 -5 27 -25 -3 -33 12 -16 30 5 6 1 18 -11 30 -19 20 -19 20 -12
0 7 -18 6 -19 -10 -6 -13 11 -16 11 -14 1 2 -7 -3 -15 -9 -17 -7 -3 -13 2 -13
11 0 9 -4 16 -10 16 -5 0 -10 5 -10 11 0 5 4 7 10 4 6 -3 7 1 4 9 -3 9 -2 16
4 16 6 0 12 -5 14 -10 2 -7 11 -5 23 4 20 15 20 15 -4 16 -21 0 -23 3 -17 38
l7 37 -26 -44 c-14 -23 -25 -45 -25 -47 0 -7 -91 -137 -113 -161 -11 -12 -16
-27 -12 -34 5 -7 4 -10 -1 -6 -5 3 -43 -28 -84 -69 -41 -41 -83 -77 -92 -80
-10 -3 -18 -12 -18 -20 0 -8 -3 -13 -7 -13 -21 3 -34 -2 -32 -13 3 -25 -1 -38
-12 -38 -8 0 -8 5 1 15 18 22 -2 19 -51 -5 -25 -13 -37 -25 -33 -33 5 -8 4 -9
-4 -2 -7 6 -16 56 -22 110 l-11 100 38 34 c21 19 70 65 110 102 l72 69 52 -32
51 -32 25 28 c17 20 27 26 35 18 23 -23 38 -1 38 59 0 49 -3 59 -17 59 -17 1
-17 1 0 11 24 14 25 109 0 109 -13 0 -14 3 -5 12 13 13 17 108 4 108 -4 0 -14
17 -21 38 -7 20 -26 58 -42 85 -35 58 -35 59 -4 47 30 -12 39 1 54 83 19 102
30 102 31 0 0 -76 3 -93 15 -93 13 0 15 23 17 143 1 78 1 151 0 162 0 11 3 38
8 60 5 22 11 187 13 367 3 316 3 327 -15 311 -10 -9 -18 -22 -18 -30 0 -14
-10 -16 -34 -7 -10 4 -16 18 -16 36 0 16 -4 37 -9 47 -15 27 0 38 47 33 36 -4
42 -7 42 -28 0 -13 5 -24 11 -24 6 0 9 14 7 32 -3 28 -8 33 -38 39 -53 11 -62
31 -56 124 3 44 12 125 20 180 9 55 15 116 15 135 l-1 35 -9 -35 c-5 -19 -9
-46 -11 -60 -1 -14 -5 -30 -10 -36 -8 -11 -22 -73 -38 -162 -4 -23 -10 -45
-13 -49 -4 -3 1 -15 10 -26 17 -19 17 -20 1 -14 -10 4 -18 2 -18 -3 0 -6 6
-10 13 -10 9 0 8 -3 -2 -9 -7 -5 -9 -11 -5 -14 5 -3 9 -20 9 -39 -1 -23 -5
-32 -15 -30 -11 2 -10 -2 3 -11 17 -14 24 -47 10 -47 -5 0 -9 -17 -9 -37 -4
-97 -21 -183 -36 -183 -5 0 -8 -8 -7 -17 4 -40 -2 -63 -15 -63 -8 0 -20 -13
-27 -29 -7 -16 -17 -27 -21 -25 -4 3 -8 0 -8 -6 0 -6 -5 -8 -12 -4 -7 5 -9 0
-6 -14 3 -12 3 -21 -1 -20 -20 2 -31 -4 -31 -17 0 -8 -4 -15 -9 -15 -13 0 -22
28 -11 35 6 4 10 11 10 16 0 6 -4 7 -10 4 -5 -3 -10 -1 -10 5 0 6 -4 8 -10 5
-5 -3 -10 -2 -10 3 0 5 -10 12 -21 15 -21 6 -21 6 -2 -16 25 -27 38 -62 21
-50 -35 21 -54 7 -49 -34 1 -7 -3 -13 -9 -13 -6 0 -9 4 -5 9 3 5 1 12 -5 16
-5 3 -10 -3 -10 -14 0 -11 5 -23 10 -26 6 -4 8 -12 4 -18 -3 -7 5 -1 17 13
l22 25 -6 -25 c-4 -14 -7 -31 -7 -37 0 -7 -5 -13 -11 -13 -5 0 -7 4 -4 10 3 6
-1 7 -9 4 -19 -7 -20 -25 -3 -43 10 -10 9 -12 -3 -9 -8 2 -18 7 -21 11 -3 4
-14 -9 -25 -28 -16 -30 -23 -35 -44 -30 -20 5 -23 4 -12 -6 15 -16 16 -29 2
-29 -5 0 -9 3 -9 8 1 4 0 10 -1 15 -1 4 -3 10 -4 15 -1 4 -7 17 -14 29 -9 17
-9 22 2 26 7 3 20 0 27 -6 7 -7 5 -2 -5 11 -16 19 -17 26 -7 48 6 15 9 29 7
32 -3 3 -10 -6 -15 -19 -5 -13 -10 -19 -10 -12 -1 6 -10 9 -23 5 -16 -4 -19
-2 -13 8 5 8 4 11 -3 6 -6 -4 -9 -13 -6 -21 4 -8 9 -13 13 -10 4 2 8 -3 8 -11
0 -9 -6 -13 -14 -10 -9 4 -11 1 -7 -5 10 -16 -18 -30 -33 -17 -18 14 -27 3
-18 -19 5 -10 7 -22 6 -28 -1 -5 8 1 20 15 11 14 18 20 15 13 -4 -8 1 -10 18
-7 29 5 44 -12 26 -29 -7 -7 -10 -7 -7 -2 3 6 -7 12 -24 13 -19 2 -29 -2 -29
-11 0 -8 -7 -14 -15 -14 -8 0 -15 6 -15 14 0 7 -5 13 -12 13 -6 0 -8 -3 -5 -7
4 -3 0 -11 -9 -17 -12 -9 -13 -17 -5 -39 6 -15 7 -27 2 -27 -5 0 -11 13 -14
28 -3 16 -12 29 -21 29 -12 0 -11 -7 6 -40 17 -35 18 -41 5 -54 -10 -11 -17
-12 -22 -4 -3 6 -1 10 6 9 20 -5 21 18 0 43 l-19 23 2 -24 c0 -15 -4 -24 -12
-23 -11 3 -17 -10 -12 -32 1 -5 -4 -4 -11 3 -19 18 -28 15 -25 -12 3 -22 0
-23 -25 -16 -16 5 -28 5 -28 2 3 -20 -3 -23 -18 -11 -11 10 -14 10 -9 2 4 -8
2 -13 -6 -13 -7 -1 0 -7 17 -14 18 -7 25 -15 18 -19 -6 -4 -14 -3 -18 3 -3 5
-13 10 -21 10 -8 0 -12 -4 -9 -10 4 -6 -1 -7 -11 -3 -12 4 -15 3 -10 -5 4 -7
2 -12 -3 -12 -6 0 -11 5 -11 10 0 6 -4 10 -9 10 -5 0 -8 -8 -6 -17 1 -11 10
-17 21 -16 18 1 18 1 -1 -13 -17 -13 -21 -13 -30 0 -8 10 -16 12 -26 5 -13 -8
-6 -13 14 -10 7 1 11 -15 8 -32 -1 -4 4 -18 10 -30 7 -16 1 -13 -20 11 -27 28
-37 28 -32 0 2 -16 -18 -7 -22 10 -3 12 -9 7 -21 -20 -9 -21 -19 -38 -22 -38
-3 0 -2 5 1 10 3 6 1 10 -5 10 -6 0 -9 4 -5 9 3 5 1 12 -5 16 -6 4 -8 11 -5
16 3 5 -1 6 -9 3 -19 -7 -28 -32 -14 -40 6 -4 8 -3 4 4 -3 6 -2 13 3 16 5 4
12 2 15 -3 4 -5 2 -13 -4 -16 -8 -5 -7 -12 2 -23 11 -15 11 -15 -3 -4 -10 7
-26 14 -37 17 -15 3 -19 -1 -15 -15 4 -16 0 -19 -25 -17 -17 1 -28 5 -26 8 2
4 -2 9 -10 12 -8 3 -19 -5 -27 -20 -12 -22 -14 -23 -21 -6 -6 14 -7 12 -5 -8
3 -21 0 -25 -15 -21 -10 2 -18 9 -18 16 0 6 -8 2 -16 -9 -15 -20 -15 -20 -30
-1 -14 20 -14 20 -14 0 0 -16 -2 -17 -10 -4 -9 13 -10 13 -10 0 0 -13 -1 -13
-10 0 -7 11 -10 11 -10 2 0 -7 -4 -10 -10 -7 -13 8 -13 -8 0 -21 7 -7 6 -11
-5 -11 -8 0 -15 4 -15 9 0 11 -23 6 -32 -7 -5 -6 -8 -5 -8 3 0 8 -5 10 -12 6
-7 -5 -9 -2 -6 8 4 9 0 15 -8 15 -8 0 -14 -4 -14 -9 0 -4 -9 -8 -20 -8 -11 0
-20 7 -20 15 0 8 -7 15 -16 15 -8 0 -13 4 -10 8 7 12 -11 35 -22 28 -7 -4 -5
-16 6 -35 9 -16 21 -27 26 -24 5 4 6 1 1 -7 -7 -11 -10 -10 -19 1 -6 8 -19 13
-28 11 -9 -2 -22 6 -28 17 -8 15 -8 21 0 21 6 0 8 5 5 11 -5 6 -12 4 -20 -7
-11 -16 -13 -16 -24 2 -10 17 -11 16 -5 -8 5 -23 3 -27 -15 -25 -16 1 -18 4
-8 16 10 12 9 14 -5 8 -10 -4 -18 -2 -18 5 0 6 -6 5 -17 -3 -11 -10 -14 -10
-9 -1 7 12 0 15 -36 15 -9 0 -16 4 -15 10 1 5 -6 11 -15 12 -10 2 -18 -1 -18
-6 0 -5 -12 -8 -27 -8 -21 1 -23 3 -8 6 11 3 25 13 32 22 9 11 12 12 13 3 0
-7 5 -10 11 -6 8 5 8 9 -1 14 -9 5 -9 9 -1 14 6 4 8 12 5 18 -3 5 -12 -1 -18
-14 -7 -12 -18 -22 -25 -20 -7 1 -10 -2 -6 -8 4 -6 -5 -10 -22 -10 -27 1 -27
1 -9 15 11 8 17 16 13 16 -4 1 -11 2 -16 3 -5 0 -13 4 -17 9 -11 10 -24 9 -24
-4 0 -5 6 -7 13 -3 8 5 8 2 -2 -9 -17 -21 -16 -21 -18 4 -2 24 -22 51 -33 44
-7 -4 -7 17 0 35 1 3 2 10 0 15 -1 6 4 4 11 -2 17 -17 29 -16 29 2 0 13 -18
20 -43 16 -4 0 -6 2 -6 6 3 20 -2 24 -15 14 -11 -9 -16 -9 -22 0 -5 8 -3 9 6
4 10 -6 12 -4 7 8 -3 9 -1 18 6 21 7 4 2 4 -10 2 -13 -2 -25 0 -28 4 -7 11
-45 1 -45 -12 0 -5 -4 -6 -10 -3 -5 3 -10 11 -10 16 0 6 5 7 10 4 6 -3 10 1
10 9 0 9 -8 16 -17 17 -13 0 -11 3 7 11 24 11 24 11 -18 21 -29 7 -41 14 -38
24 3 7 -1 13 -9 13 -21 0 -37 34 -23 48 9 9 6 12 -13 13 -20 0 -21 2 -6 8 18
7 18 8 1 21 -16 13 -17 13 -9 0 8 -13 7 -13 -8 -1 -14 11 -15 17 -5 30 7 9 9
13 4 9 -11 -9 -36 16 -36 36 0 8 -5 18 -11 21 -6 4 -8 14 -5 22 3 8 1 11 -4 8
-9 -6 -14 8 -11 28 0 4 -4 7 -11 7 -6 0 -8 3 -5 7 4 3 3 11 -2 17 -8 11 -26
63 -55 161 -13 43 -56 272 -56 296 0 5 -8 9 -18 9 -10 0 -28 7 -40 16 -28 20
-31 95 -4 139 17 28 17 33 0 125 -13 64 -18 128 -16 198 3 88 1 102 -13 102
-9 0 -18 3 -22 6 -8 8 10 52 29 71 12 13 14 28 9 77 -4 34 -13 76 -21 94 -12
31 -10 62 5 62 3 0 12 -28 18 -62 29 -152 146 -309 279 -374 62 -31 86 -37
161 -41 127 -8 236 26 318 98 35 31 45 26 23 -14 -10 -20 -10 -21 6 -8 10 8
26 32 37 53 11 21 40 70 65 109 25 39 56 95 68 126 22 53 24 103 4 103 -6 0
-8 7 -5 14 4 10 1 13 -7 10 -10 -4 -15 10 -18 53 -3 32 -9 66 -13 76 -4 10 -3
17 4 17 6 0 11 -10 11 -22 1 -22 1 -23 15 -4 8 11 15 28 15 39 0 16 -5 18 -32
11 -29 -6 -31 -5 -20 9 8 9 27 19 43 22 16 4 30 10 30 13 9 55 7 72 -7 72 -11
0 -13 6 -9 20 3 11 3 21 -2 21 -4 1 -18 3 -31 4 -13 1 -30 12 -39 24 -8 13
-21 20 -30 17 -8 -3 -24 6 -38 22 -14 15 -25 21 -25 14 0 -8 -11 -6 -37 8 -20
10 -40 17 -45 14 -4 -3 -8 -1 -8 5 0 6 -7 7 -17 4 -11 -5 -14 -3 -9 6 6 9 1
12 -20 10 -16 -2 -35 0 -42 5 -8 5 -36 8 -63 8 -27 0 -46 4 -44 9 3 4 -5 5
-17 2 -13 -3 -63 -6 -113 -7 -106 -3 -161 -27 -204 -92 -15 -21 -45 -49 -66
-61 l-40 -22 3 62 c2 34 9 68 15 75 7 9 7 16 0 23 -8 8 -7 18 2 36 7 14 12 34
10 45 -4 17 -2 18 12 6 15 -11 16 -11 10 5 -4 11 -4 23 -1 29 4 6 7 28 8 49 2
23 -1 34 -6 27 -5 -8 -8 -2 -9 17 -1 29 -1 30 -9 5 -4 -14 -9 -20 -10 -15 -1
6 -3 20 -6 33 -2 13 0 21 5 18 5 -3 11 5 13 19 3 13 0 26 -6 29 -7 3 -7 5 2 5
6 1 12 11 12 23 0 21 0 21 -16 2 -14 -18 -15 -18 -8 6 4 14 10 27 13 30 4 3 8
14 8 25 1 11 4 31 7 45 3 14 8 37 12 52 4 20 10 25 22 21 15 -6 15 -4 4 9 -11
14 -10 18 8 28 11 6 20 16 19 23 -3 26 2 38 13 31 7 -5 9 -2 5 9 -4 12 -2 14
10 10 12 -5 14 -1 8 18 -5 18 -4 21 4 9 7 -10 11 -11 11 -2 0 6 6 12 14 12 7
0 16 9 19 21 3 12 10 18 15 15 5 -3 19 8 31 24 12 17 17 30 11 30 -17 0 -11
26 9 44 11 10 24 15 29 12 6 -3 22 7 35 24 14 16 30 30 35 30 5 0 9 8 8 18 0
10 5 16 14 15 9 -2 40 6 70 18 44 16 48 19 20 15 -35 -6 -35 -5 -10 9 14 8 38
14 54 15 24 0 27 -2 16 -15 -10 -12 -10 -15 4 -15 9 0 16 8 16 20 0 13 6 20
18 19 10 0 12 -3 5 -6 -20 -7 -15 -19 7 -20 11 -1 18 2 15 7 -3 4 1 10 8 12
20 8 169 -10 180 -21 5 -5 15 -7 21 -5 13 5 122 -42 131 -57 4 -5 19 -9 34 -9
15 0 32 -5 38 -11 6 -6 17 -12 24 -13 8 -2 27 -8 42 -14 16 -7 31 -12 33 -12
3 0 25 -14 50 -31 25 -17 57 -32 71 -33 27 -3 32 -11 51 -76 10 -32 10 -30 6
18 -6 61 7 87 36 72 9 -5 20 -7 23 -3 4 3 9 -2 13 -11 3 -9 12 -16 19 -16 7 0
16 -10 20 -22 3 -14 8 -18 11 -11 10 24 140 -43 171 -87 8 -11 19 -20 25 -20
7 0 6 6 -2 15 -7 9 -8 15 -2 15 17 0 24 -34 10 -45 -17 -13 -11 -45 8 -45 17
0 84 -67 84 -84 0 -6 5 -4 10 4 6 10 10 11 10 3 0 -14 112 -75 145 -80 16 -2
17 -1 5 6 -27 18 -5 20 60 4 63 -14 135 -14 174 2 13 6 17 5 12 -3 -4 -7 2 -9
20 -6 25 5 26 3 13 -13 -12 -16 -12 -17 2 -6 9 7 19 9 24 5 4 -4 1 3 -6 16 -8
12 -18 22 -23 22 -4 0 -2 8 5 17 8 9 9 14 3 10 -6 -3 -16 5 -22 18 -17 38 13
33 37 -5 10 -16 20 -28 23 -25 6 6 27 -67 29 -100 4 -58 -13 -61 -35 -5 -22
55 -28 50 -11 -7 18 -60 18 -61 0 -37 -13 17 -14 16 -8 -20 4 -28 3 -37 -5
-32 -9 5 -10 -6 -6 -38 4 -28 2 -51 -4 -59 -8 -10 -7 -21 3 -41 8 -16 15 -39
15 -53 0 -16 4 -22 12 -17 8 5 9 2 5 -10 -8 -21 18 -54 26 -33 3 6 6 0 6 -15
1 -16 6 -28 11 -28 6 0 10 -7 10 -16 0 -8 9 -35 20 -60 28 -61 42 -137 27
-146 -7 -4 -9 -8 -5 -8 4 0 4 -10 -1 -22 -8 -21 -13 -23 -81 -19 -50 2 -75 -1
-80 -9 -4 -7 -13 -9 -19 -6 -14 9 -14 27 0 23 6 -1 14 4 17 12 2 8 0 11 -5 8
-5 -3 -9 3 -9 14 0 12 7 19 18 19 19 0 25 25 8 35 -5 3 -10 13 -10 21 0 9 12
2 31 -18 l31 -33 -28 38 c-15 21 -33 36 -39 33 -7 -2 -23 7 -36 21 -19 20 -20
25 -7 20 10 -4 28 -2 40 3 23 9 23 9 -2 11 -14 0 -32 1 -40 0 -8 -1 -21 9 -29
21 l-14 23 24 -20 24 -20 -24 27 c-13 15 -27 25 -31 23 -4 -3 -16 5 -26 17
-17 19 -17 21 -1 15 9 -4 17 -4 17 -2 0 8 -64 39 -83 40 -11 1 -22 6 -25 12
-4 5 -16 13 -26 16 -15 6 -17 5 -7 -6 9 -12 6 -13 -15 -9 -14 2 -28 11 -31 18
-3 8 -9 14 -14 14 -4 0 -6 -7 -3 -15 7 -16 -21 -22 -30 -6 -7 11 -56 21 -56
10 0 -4 5 -9 12 -11 7 -3 5 -7 -6 -11 -9 -4 -15 -3 -12 2 5 8 -15 18 -58 27
-13 3 -17 0 -12 -12 6 -15 4 -15 -17 -1 -13 8 -40 15 -61 14 -35 -1 -36 -1
-14 -14 l23 -14 -25 7 c-14 4 -32 7 -40 6 -41 -3 -78 -11 -103 -21 -16 -6 -26
-7 -22 -2 9 15 -29 18 -40 3 -6 -7 -20 -14 -32 -15 -12 0 -20 -4 -17 -8 5 -9
-6 -39 -15 -39 -4 0 -8 12 -9 27 -1 14 -4 29 -7 31 -5 5 -9 -33 -6 -51 1 -5
-3 -6 -8 -2 -6 3 -9 11 -8 18 2 7 -2 2 -7 -11 -8 -17 -16 -22 -32 -18 -20 5
-22 3 -17 -26 4 -27 3 -30 -10 -20 -12 10 -15 9 -20 -7 -5 -21 10 -97 24 -121
26 -43 31 -61 25 -85 -4 -14 -11 -23 -17 -20 -11 7 -69 -16 -69 -27 0 -4 4 -9
9 -12 5 -4 12 -29 16 -58 4 -29 16 -76 26 -104 27 -80 114 -241 174 -322 29
-40 61 -92 71 -116 18 -43 68 -84 79 -65 4 5 15 9 26 9 10 0 19 4 19 9 0 4 28
11 63 15 163 16 270 46 135 38 -112 -7 -160 -4 -186 12 -7 4 -26 8 -42 8 -17
1 -30 5 -30 10 0 17 -18 7 -23 -13 -5 -20 -7 -21 -23 -5 -9 10 -17 26 -18 36
-1 10 -13 32 -28 48 -14 16 -31 39 -38 51 -8 17 0 13 37 -15 26 -20 77 -51
113 -68 62 -29 71 -31 185 -31 151 0 203 19 298 106 121 110 176 237 180 413
l2 98 55 -5 c44 -5 59 -11 78 -34 l22 -28 -20 -17 c-20 -17 -20 -17 2 -20 20
-3 25 -12 34 -68 7 -36 12 -136 13 -222 1 -87 5 -158 10 -158 5 0 18 -23 30
-51 l22 -51 20 23 c13 15 17 29 12 43 -4 12 -7 48 -5 82 2 45 -1 64 -13 74
-12 10 -18 10 -31 -1 -14 -11 -15 -9 -8 27 4 21 8 83 8 136 1 84 3 98 17 98
19 0 33 26 23 42 -4 6 -3 13 2 17 27 19 37 65 46 215 5 88 13 166 17 175 5 8
6 32 4 53 -5 31 -3 38 11 38 10 0 15 -3 13 -7 -3 -5 -8 -113 -12 -240 l-7
-233 24 0 c23 0 25 5 35 79 6 46 17 86 26 95 8 9 14 30 13 51 -1 19 2 35 6 35
5 0 8 7 8 15 0 10 10 15 29 15 62 0 65 27 79 591 8 304 20 419 32 309 l5 -45
43 0 c26 0 42 -5 42 -12 0 -8 10 -11 28 -7 18 4 34 1 43 -8 38 -36 47 -40 68
-28 26 13 65 -4 57 -25 -3 -9 0 -12 8 -9 10 4 15 -7 17 -40 2 -24 2 -43 0 -40
-2 2 -10 -1 -18 -7 -10 -9 -13 -8 -13 2 0 11 -2 11 -8 2 -4 -7 -23 -15 -42
-17 -52 -8 -63 -11 -85 -23 -11 -5 -44 -13 -74 -16 -30 -4 -60 -12 -67 -19
-16 -18 -30 -133 -14 -123 12 7 9 -52 -4 -73 -4 -6 -3 -19 1 -27 5 -9 2 -82
-7 -173 -10 -86 -13 -161 -9 -166 5 -6 66 -5 157 3 82 7 160 9 174 6 13 -3 72
1 129 9 57 9 193 19 302 23 l199 6 -4 -24 c-3 -21 -10 -25 -58 -31 -30 -5 -80
-13 -110 -19 l-55 -12 62 -13 c34 -7 82 -21 106 -32 44 -19 46 -22 52 -74 4
-29 1 -109 -5 -178 -6 -69 -17 -196 -24 -282 -8 -96 -18 -163 -26 -172 -14
-18 -62 -21 -91 -6 -10 6 -45 14 -77 18 -48 6 -57 10 -57 27 0 18 -7 20 -72
21 -66 2 -72 0 -75 -20 -3 -19 -9 -21 -70 -21 -38 0 -68 4 -69 10 -3 35 -56
47 -80 18 -8 -9 -12 -18 -11 -20 2 -3 1 -7 -2 -10 -3 -4 -6 1 -6 10 0 10 -7
17 -15 17 -8 0 -15 -9 -15 -20 0 -11 -6 -20 -12 -21 -7 0 -51 -1 -98 -2 -68
-2 -85 -5 -85 -17 0 -11 15 -16 52 -20 74 -8 82 -19 49 -74 -15 -25 -30 -46
-34 -46 -4 0 -13 -12 -19 -28 -7 -15 -26 -32 -41 -38 -25 -10 -30 -18 -34 -57
-6 -47 -40 -107 -62 -107 -26 0 -34 26 -39 130 -3 58 -9 126 -13 152 -6 43 -9
47 -29 42 -20 -5 -24 0 -32 33 l-10 38 -16 -37 c-22 -48 -47 -195 -47 -270 0
-60 -9 -87 -40 -123 -15 -17 -18 -52 -24 -275 -4 -140 -11 -284 -16 -320 -5
-36 -12 -173 -15 -305 -4 -132 -7 -251 -8 -264 -2 -21 4 -26 39 -35 22 -6 55
-22 72 -36 71 -58 88 -70 97 -70 6 1 2 7 -8 14 -10 8 -15 16 -10 19 13 8 80
-18 126 -49 23 -15 87 -51 142 -80 55 -28 116 -61 135 -73 19 -11 53 -29 76
-40 22 -10 99 -58 170 -106 71 -48 145 -96 164 -107 237 -132 525 -326 611
-410 49 -49 151 -184 187 -249 28 -50 122 -392 122 -443 0 -10 20 -87 44 -171
61 -207 118 -415 155 -565 17 -69 44 -170 60 -225 16 -55 51 -175 77 -267 l49
-168 343 0 342 0 0 1104 0 1103 -57 7 c-75 9 -103 16 -103 27 0 12 117 11 141
-1 19 -10 19 -4 19 315 l0 325 -25 0 c-46 0 -179 -40 -260 -79 -120 -57 -227
-163 -277 -274 -14 -30 -22 -38 -40 -35 -22 3 -23 6 -21 98 3 138 23 343 34
357 6 6 26 17 46 24 19 6 47 17 61 25 26 13 22 19 -23 26 -12 2 -20 11 -20 23
-1 11 -4 25 -8 32 -4 6 -3 14 1 17 5 3 8 22 6 41 -2 31 1 38 23 46 14 5 35 6
47 2 26 -9 32 -10 51 -12 24 -2 17 -36 -10 -51 -29 -16 -31 -25 -9 -38 11 -6
15 -17 11 -31 -3 -11 -1 -21 4 -21 10 0 46 19 69 36 8 7 29 15 46 18 37 8 69
39 61 59 -6 16 -75 52 -120 63 -67 16 -28 24 117 24 125 0 156 3 156 14 0 19
-65 26 -232 26 -120 0 -146 -3 -185 -21 -57 -26 -79 -13 -43 26 26 27 34 29
205 46 66 6 143 17 172 25 28 8 76 14 107 14 l56 0 0 720 c0 396 -4 720 -8
720 -4 0 -13 -5 -20 -12 -9 -9 -15 -9 -24 0 -17 17 -85 15 -91 -2 -3 -8 -3
-24 0 -36 5 -18 2 -21 -18 -19 -54 5 -70 -1 -80 -29 -9 -28 -12 -28 -67 -24
-34 3 -64 11 -74 21 -9 9 -24 22 -33 30 -12 9 -15 23 -11 45 9 50 36 357 35
401 l-1 40 -9 -35 c-9 -38 -44 -290 -54 -384 -7 -71 -11 -79 -34 -67 -29 16
-61 2 -61 -26 0 -21 -4 -24 -27 -21 -28 3 -28 4 -31 85 l-3 82 -32 5 c-46 8
-197 15 -305 16 -92 0 -93 0 -123 32 -16 18 -29 38 -29 45 0 7 -4 13 -10 13
-18 0 -12 119 9 159 10 20 28 56 40 81 31 65 42 81 86 122 75 70 301 144 469
155 102 6 106 5 114 -16 8 -21 8 -21 30 9 21 28 27 30 60 24 126 -23 222 -79
222 -130 0 -14 8 -24 21 -27 17 -5 20 -10 13 -24 -5 -10 -10 -59 -12 -110 -3
-82 -1 -94 17 -112 12 -12 26 -21 31 -21 7 0 10 370 10 1091 0 1034 -1 1090
-17 1085 -10 -2 -53 -10 -96 -17 -62 -10 -82 -11 -98 -1 -17 11 -23 9 -44 -15
-13 -16 -25 -22 -25 -15 0 19 -20 14 -20 -5 0 -13 -3 -14 -12 -5 -6 6 -18 8
-27 3 -9 -5 -34 -12 -56 -16 -22 -4 -45 -11 -51 -16 -5 -4 -39 -8 -75 -8 -84
1 -102 0 -109 -10 -3 -5 -33 -10 -67 -13 l-62 -4 -3 35 c-2 20 3 54 10 76 14
41 32 69 32 48 0 -14 81 -12 96 2 15 15 74 31 162 46 40 7 75 16 78 21 8 12
112 10 119 -3 4 -6 13 -8 20 -5 8 3 16 0 19 -7 3 -8 11 -4 23 11 25 30 66 51
137 67 32 8 60 16 62 18 3 3 4 38 2 78 l-3 74 -110 -22z m-4769 -431 c-18 -16
-18 -16 -6 6 6 13 14 21 18 18 3 -4 -2 -14 -12 -24z m1069 18 c3 -5 1 -10 -4
-10 -6 0 -11 5 -11 10 0 6 2 10 4 10 3 0 8 -4 11 -10z m-65 -10 c0 -5 -9 -10
-20 -10 -11 0 -20 5 -20 10 0 6 9 10 20 10 11 0 20 -4 20 -10z m3630 -54 c0
-62 -1 -65 -27 -70 -16 -3 -122 -22 -238 -42 -115 -19 -220 -37 -232 -41 -22
-5 -29 5 -23 32 1 6 5 28 7 50 3 22 8 43 11 46 4 3 102 23 217 44 116 20 212
39 214 41 2 2 19 4 38 4 l33 0 0 -64z m-3415 -46 c3 -5 2 -10 -4 -10 -5 0 -13
5 -16 10 -3 6 -2 10 4 10 5 0 13 -4 16 -10z m-1340 -39 c-3 -12 -11 -18 -17
-15 -7 5 -9 -2 -6 -19 3 -15 1 -24 -3 -21 -15 9 -10 46 8 66 20 22 27 17 18
-11z m3800 24 c-5 -2 -108 -22 -227 -45 -169 -32 -222 -38 -235 -30 -15 10
-15 11 -2 6 10 -2 49 4 89 13 40 10 82 16 94 14 18 -4 19 -3 6 7 -12 9 -8 10
20 6 19 -3 73 3 120 14 72 16 167 26 135 15z m-477 -92 c-10 -2 -26 -2 -35 0
-10 3 -2 5 17 5 19 0 27 -2 18 -5z m432 -79 c0 -8 -4 -12 -10 -9 -5 3 -10 10
-10 16 0 5 5 9 10 9 6 0 10 -7 10 -16z m-3921 -26 c12 -15 11 -18 -3 -18 -10
0 -16 8 -16 22 0 12 1 19 3 17 1 -2 9 -12 16 -21z m3796 -6 c-3 -3 -11 0 -18
7 -9 10 -8 11 6 5 10 -3 15 -9 12 -12z m997 -34 c-6 -6 -16 -7 -22 -3 -9 6 -9
9 1 16 17 10 34 0 21 -13z m-4784 -38 c-2 -7 -10 1 -17 16 -12 27 -11 28 4 12
10 -9 16 -21 13 -28z m1904 18 c-7 -7 -12 -8 -12 -2 0 14 12 26 19 19 2 -3 -1
-11 -7 -17z m486 -210 l-3 -142 -27 -7 c-18 -5 -31 -3 -35 4 -11 18 -3 260 9
274 6 7 21 13 34 13 l25 0 -3 -142z m-336 74 c8 -8 5 -9 -12 -5 -16 4 -21 3
-16 -5 9 -14 -3 -15 -24 -2 -13 8 -12 10 3 10 10 0 16 4 13 9 -8 13 22 7 36
-7z m-3 -51 c9 -6 10 -11 2 -15 -6 -4 -11 -2 -11 4 0 6 -4 8 -10 5 -5 -3 -10
-1 -10 4 0 13 10 14 29 2z m-1689 -39 c0 -5 -13 -7 -30 -4 -16 2 -30 6 -30 8
0 2 14 4 30 4 17 0 30 -4 30 -8z m-382 -250 c-7 -10 -14 -19 -15 -21 -3 -4 2
28 6 47 1 2 6 0 11 -3 8 -5 7 -12 -2 -23z m1565 -121 c4 9 6 8 6 -5 1 -13 7
-17 19 -14 13 4 22 -4 32 -26 8 -17 15 -34 15 -38 0 -3 4 -10 9 -15 6 -5 6 -2
1 7 -4 8 1 6 12 -5 11 -11 18 -26 15 -32 -2 -8 4 -13 16 -13 12 0 23 -4 26 -9
4 -5 -4 -7 -16 -3 -14 3 -19 2 -14 -6 4 -7 13 -12 21 -12 8 0 16 -4 20 -9 9
-16 -66 9 -96 32 -16 11 -42 48 -59 81 -28 57 -41 99 -21 67 7 -11 9 -11 14 0z
m183 -53 c5 -8 2 -9 -10 -5 -10 4 -21 7 -25 7 -4 0 -8 7 -8 14 0 11 5 12 18 5
10 -5 21 -14 25 -21z m24 -27 c0 11 2 11 9 -1 6 -8 7 -18 5 -22 -3 -4 0 -8 5
-8 6 0 11 -4 11 -10 0 -16 -24 -1 -45 28 -15 21 -15 24 -2 13 14 -11 17 -11
17 0z m64 -67 c34 -5 46 -18 39 -44 -4 -15 -9 -16 -34 -7 -16 6 -29 15 -29 20
0 4 5 5 10 2 6 -3 10 -1 10 4 0 6 -12 11 -26 11 -31 0 -60 14 -67 34 -5 12 0
12 31 -1 20 -9 50 -17 66 -19z m-35 -51 c2 -2 -3 -3 -11 -3 -9 0 -19 7 -22 16
-6 15 -4 15 11 3 10 -7 20 -15 22 -16z m-1989 -263 c0 -11 -4 -20 -8 -20 -4 0
-8 9 -9 20 -1 11 2 20 8 20 5 0 9 -9 9 -20z m2480 -101 c0 -5 -4 -9 -10 -9 -5
0 -10 7 -10 16 0 8 5 12 10 9 6 -3 10 -10 10 -16z m2755 12 c15 -6 2 -12 -50
-24 -39 -9 -89 -19 -112 -22 -41 -6 -43 -5 -43 17 0 14 3 28 7 31 9 9 173 7
198 -2z m-251 -40 c14 -22 -14 -60 -51 -70 -69 -18 -487 -18 -498 0 -12 18 14
27 95 34 41 3 111 11 155 17 75 10 206 23 267 26 15 1 29 -2 32 -7z m-4724 -5
c0 -2 -9 -6 -20 -9 -11 -3 -18 -1 -14 4 5 9 34 13 34 5z m-60 -16 c0 -5 -2
-10 -4 -10 -3 0 -8 5 -11 10 -3 6 -1 10 4 10 6 0 11 -4 11 -10z m1126 -32 c4
-7 4 -10 -1 -6 -4 4 -16 -4 -27 -17 -11 -14 -25 -25 -31 -25 -8 0 -8 3 1 9 8
4 13 11 13 15 -1 3 2 5 5 4 3 -2 10 5 15 15 12 20 15 21 25 5z m-1179 -4 c-3
-3 -12 -4 -19 -1 -8 3 -5 6 6 6 11 1 17 -2 13 -5z m-37 -18 c0 -2 -7 -7 -16
-10 -8 -3 -12 -2 -9 4 6 10 25 14 25 6z m645 -36 c3 -5 1 -10 -4 -10 -6 0 -11
5 -11 10 0 6 2 10 4 10 3 0 8 -4 11 -10z m813 -7 c-10 -2 -28 -2 -40 0 -13 2
-5 4 17 4 22 1 32 -1 23 -4z m-1331 -21 c-3 -4 20 -8 51 -8 32 -1 86 -9 122
-19 36 -9 71 -18 78 -19 15 -3 32 -25 32 -43 0 -9 -20 -13 -62 -14 -61 -1 -62
-1 -22 -9 85 -17 122 -31 128 -47 4 -9 2 -19 -4 -23 -14 -9 -60 0 -60 11 0 4
-10 5 -22 2 -13 -3 -46 -9 -75 -13 -28 -4 -82 -23 -120 -41 -67 -32 -153 -94
-153 -109 0 -9 57 -6 67 4 10 10 61 7 68 -4 3 -5 10 -10 16 -10 5 0 9 5 9 10
0 6 -6 10 -14 10 -8 0 -18 6 -22 13 -4 6 -4 9 1 5 4 -4 13 -4 19 1 10 9 47 15
72 12 7 -1 15 -12 18 -26 9 -36 40 -48 105 -42 95 9 104 14 124 71 2 5 9 6 16
2 9 -6 10 -11 2 -19 -21 -21 -11 -36 32 -44 81 -16 124 7 98 55 -7 14 -5 21 9
29 16 10 18 8 22 -18 6 -41 -3 -140 -12 -134 -4 3 -14 -2 -21 -11 -11 -14 -11
-18 3 -28 14 -11 14 -17 -7 -68 -48 -119 -134 -208 -235 -244 -61 -22 -250
-34 -250 -16 0 6 -9 8 -20 5 -12 -3 -20 0 -20 6 0 7 -5 9 -10 6 -12 -7 -93 36
-132 69 -66 58 -149 194 -150 247 -1 16 -5 29 -9 29 -5 0 -6 14 -2 32 5 23 3
29 -6 24 -17 -11 -10 40 12 81 21 40 23 75 3 67 -24 -9 -29 16 -11 63 13 32
20 41 26 32 7 -11 9 -10 9 3 0 18 56 88 71 88 4 0 3 -13 -2 -30 -6 -16 -9 -37
-6 -47 3 -12 5 -10 6 8 1 25 41 84 41 61 0 -6 6 -12 13 -15 6 -2 4 -3 -5 -2
-10 2 -21 -1 -24 -6 -3 -6 9 -9 29 -7 20 1 34 7 34 15 0 7 -4 13 -9 13 -4 0
-8 4 -8 8 0 4 21 9 47 10 26 1 50 7 54 15 4 7 19 13 34 15 14 1 24 -1 22 -6z
m1553 -52 c0 -13 1 -13 10 0 8 13 11 12 23 -4 8 -11 18 -16 24 -13 5 3 24 -3
41 -14 18 -10 39 -19 47 -19 8 0 15 -4 15 -10 0 -5 6 -10 14 -10 7 0 20 -14
27 -32 7 -18 31 -50 53 -73 37 -37 40 -45 44 -105 11 -186 -97 -378 -255 -453
-64 -30 -74 -32 -184 -32 -113 0 -117 1 -190 37 -86 43 -158 110 -194 182 -19
37 -22 53 -14 68 6 10 7 28 4 39 -4 11 -2 26 4 32 7 10 4 13 -12 14 -12 1 -23
7 -25 13 -2 5 -7 8 -11 6 -4 -3 -6 11 -6 30 1 19 -2 34 -6 34 -10 0 -6 116 4
126 4 4 18 2 32 -4 14 -7 39 -12 54 -12 38 0 51 -30 22 -49 -28 -18 -26 -35 4
-49 14 -7 36 -17 50 -24 13 -6 22 -14 20 -18 -3 -4 2 -13 10 -20 21 -18 18
-33 -5 -27 -32 8 -24 -19 15 -58 59 -57 127 -83 240 -94 55 -5 101 -8 103 -6
1 1 -19 8 -45 14 -26 7 -61 19 -76 27 -16 7 -42 14 -58 14 -40 0 -132 49 -125
66 3 8 0 14 -7 15 -8 0 -8 2 1 6 8 3 22 19 33 37 18 29 19 30 19 7 0 -19 3
-21 14 -12 11 9 15 9 18 0 2 -6 13 -9 23 -7 17 4 14 7 -12 18 -53 20 -30 26
56 16 87 -10 106 -30 28 -29 -26 0 -47 -3 -47 -8 0 -8 22 -13 42 -10 4 0 32 3
62 5 50 4 55 2 59 -17 3 -12 3 -3 2 21 -1 23 1 42 6 42 5 0 9 -7 9 -16 0 -8 5
-12 10 -9 6 3 10 3 10 -2 0 -4 16 -9 35 -10 21 -1 35 3 35 10 0 7 4 6 10 -3 8
-12 10 -12 10 -1 0 8 7 4 18 -10 l19 -22 6 22 c4 18 1 24 -14 28 -25 7 -25 23
1 23 11 0 20 4 20 10 0 5 -9 15 -20 22 -11 7 -20 20 -20 28 0 10 -10 16 -27
18 -16 1 -29 7 -31 12 -2 6 -9 10 -15 10 -7 0 -25 7 -42 16 -16 9 -43 21 -60
26 -38 13 -175 26 -168 16 2 -5 0 -8 -5 -8 -6 0 -12 7 -16 15 -3 9 0 15 9 15
7 0 16 4 19 8 3 5 -8 6 -24 4 -17 -2 -28 -8 -25 -12 2 -4 -4 -15 -15 -25 -11
-10 -20 -13 -20 -7 0 5 -9 8 -20 5 -27 -7 -27 20 1 45 26 25 120 52 185 53 43
1 45 2 19 9 -26 7 -23 8 20 9 60 1 146 -32 204 -78 23 -18 48 -31 57 -29 37 7
-76 101 -126 104 -45 3 -96 44 -55 44 8 0 15 8 15 18 0 11 7 18 20 18 11 0 20
-7 20 -16z m185 10 c3 -5 1 -10 -4 -10 -6 0 -11 5 -11 10 0 6 2 10 4 10 3 0 8
-4 11 -10z m1981 -236 c7 -91 -10 -348 -31 -456 -7 -40 -19 -156 -24 -258 -6
-102 -16 -207 -23 -234 -6 -29 -9 -91 -5 -151 2 -56 2 -107 -2 -113 -9 -15
-60 -33 -72 -26 -12 7 -12 50 1 92 5 19 11 104 14 190 3 86 8 186 11 222 3 36
7 119 10 185 11 247 25 501 30 540 9 64 27 125 36 120 4 -3 11 0 15 6 13 22
33 -37 40 -117z m-1688 41 c-3 -3 -9 2 -12 12 -6 14 -5 15 5 6 7 -7 10 -15 7
-18z m82 -65 c0 -5 -2 -10 -4 -10 -3 0 -8 5 -11 10 -3 6 -1 10 4 10 6 0 11 -4
11 -10z m-1202 -27 c-4 -39 -28 -42 -28 -4 0 21 5 31 16 31 11 0 14 -8 12 -27z
m322 7 c0 -5 -9 -10 -20 -10 -11 0 -20 5 -20 10 0 6 9 10 20 10 11 0 20 -4 20
-10z m-638 -89 c-22 -22 -27 -19 -12 8 6 12 15 19 20 16 5 -3 2 -14 -8 -24z
m325 -3 c-3 -8 -6 -5 -6 6 -1 11 2 17 5 13 3 -3 4 -12 1 -19z m308 3 c-3 -6
-11 -11 -17 -11 -6 0 -6 6 2 15 14 17 26 13 15 -4z m2670 -443 c-5 -290 -16
-361 -48 -329 -9 9 -11 79 -9 288 2 152 5 280 8 285 3 4 16 8 30 8 l24 0 -5
-252z m1205 156 c0 -14 -12 -19 -23 -8 -9 9 4 35 14 28 5 -3 9 -12 9 -20z
m-443 -56 c-3 -8 -6 -5 -6 6 -1 11 2 17 5 13 3 -3 4 -12 1 -19z m-5720 -120
c-3 -8 -6 -5 -6 6 -1 11 2 17 5 13 3 -3 4 -12 1 -19z m-18 -65 c7 -35 6 -43
-5 -43 -10 0 -14 14 -13 53 1 56 3 55 18 -10z m4474 3 c4 -10 -7 -23 -28 -36
-38 -24 -68 -20 -98 11 -19 21 -42 25 -52 9 -3 -5 -1 -10 5 -10 6 0 9 -4 5
-10 -3 -5 -13 -6 -22 -3 -11 4 -14 3 -9 -5 10 -17 -2 -15 -20 2 -8 8 -14 22
-14 30 0 13 13 16 70 16 56 0 70 -3 70 -15 0 -9 9 -15 23 -14 16 1 18 2 5 6
-10 2 -18 9 -18 15 0 6 9 8 20 5 11 -3 23 -1 26 4 8 14 31 11 37 -5z m47 -6
c0 -11 -7 -20 -15 -20 -17 0 -18 2 -9 24 9 23 24 20 24 -4z m-3960 -16 c0 -8
-4 -14 -10 -14 -5 0 -10 9 -10 21 0 11 5 17 10 14 6 -3 10 -13 10 -21z m-402
-62 c2 -8 -9 -12 -32 -12 -37 0 -57 17 -36 30 16 10 62 -2 68 -18z m-191 -124
c6 -13 16 -43 23 -67 11 -40 13 -43 39 -38 35 7 71 -2 71 -18 0 -25 -37 -43
-101 -50 l-66 -7 -31 38 c-30 36 -43 84 -23 84 5 0 12 14 16 31 4 18 16 34 28
39 31 13 33 12 44 -12z m4120 -24 c-3 -3 -12 -4 -19 -1 -8 3 -5 6 6 6 11 1 17
-2 13 -5z m117 -4 c-7 -7 -19 -7 -35 -1 -23 9 -22 10 11 10 23 1 31 -2 24 -9z
m-3481 -100 c-7 -25 -33 -49 -33 -30 0 11 28 50 36 50 1 0 0 -9 -3 -20z m-933
0 c0 -5 -5 -10 -11 -10 -5 0 -7 5 -4 10 3 6 8 10 11 10 2 0 4 -4 4 -10z m799
-52 c9 -27 9 -52 0 -102 -12 -73 -25 -91 -35 -49 -3 15 -10 41 -15 57 -14 44
-11 85 8 117 19 33 26 29 42 -23z m3509 -10 c-2 -6 -10 -13 -16 -14 -7 -1 -8
0 -2 3 5 2 8 9 4 14 -3 5 0 9 6 9 7 0 10 -5 8 -12z m377 -8 c3 -6 -1 -13 -10
-16 -19 -8 -30 0 -20 15 8 14 22 14 30 1z m103 -3 c7 -5 10 -13 7 -18 -9 -14
-52 -11 -58 5 -9 22 23 30 51 13z m-817 -151 c1 -21 1 -91 0 -108 -1 -14 -8
-17 -33 -14 -18 3 -77 8 -131 11 -107 8 -121 20 -46 42 46 15 91 34 147 63 38
19 62 22 63 6z m471 -18 c21 1 38 -3 38 -8 0 -17 -31 -24 -51 -12 -10 7 -33
12 -51 13 -27 0 -29 2 -13 8 11 5 24 6 29 3 5 -3 26 -4 48 -4z m199 -20 c9
-36 -22 -43 -79 -18 -25 11 -51 20 -59 20 -8 0 -11 5 -8 11 4 6 22 8 46 4 21
-4 46 -2 56 4 25 14 36 9 44 -21z m944 -9 c5 -5 10 -19 10 -32 2 -29 56 -88
83 -90 11 0 18 -5 16 -9 -8 -12 -269 -10 -516 4 -177 10 -215 14 -206 25 7 9
37 13 94 13 l84 0 23 48 c21 45 24 47 72 52 76 8 329 0 340 -11z m-1097 -80
c2 -15 -4 -31 -13 -39 -14 -12 -21 -9 -52 25 -39 43 -33 55 25 46 30 -5 38
-11 40 -32z m82 16 c0 -8 -7 -15 -15 -15 -16 0 -20 12 -8 23 11 12 23 8 23 -8z
m-608 -117 c3 -29 1 -93 -3 -143 -4 -49 -10 -155 -13 -235 -3 -80 -6 -146 -6
-147 -1 -15 -378 32 -408 51 -7 4 -12 15 -12 26 0 10 -7 20 -15 23 -12 5 -14
39 -14 194 0 170 2 190 19 211 25 30 101 42 275 44 72 0 117 3 100 5 -27 5
-28 6 -10 13 11 5 34 9 52 9 30 1 31 0 35 -51z m292 10 c15 -24 -5 -42 -37
-34 -26 6 -42 31 -31 47 9 15 56 6 68 -13z m1971 11 c-18 -5 -33 -5 -39 1 -7
7 4 10 30 9 39 -1 39 -1 9 -10z m78 4 c-7 -2 -21 -2 -30 0 -10 3 -4 5 12 5 17
0 24 -2 18 -5z m-3130 -28 c-3 -9 -8 -14 -10 -11 -3 3 -2 9 2 15 9 16 15 13 8
-4z m1361 -14 c4 -5 3 -17 0 -26 -6 -15 -8 -14 -25 1 -11 9 -19 21 -19 26 0
11 37 10 44 -1z m-1487 -27 c-3 -3 -12 -4 -19 -1 -8 3 -5 6 6 6 11 1 17 -2 13
-5z m228 -99 c10 -38 19 -85 19 -104 1 -31 -2 -35 -33 -44 -30 -7 -37 -5 -51
13 -28 37 -45 2 -48 -104 -2 -83 -1 -89 13 -72 20 26 20 4 0 -54 -13 -37 -13
-52 0 -133 31 -189 21 -227 -105 -416 -132 -197 -137 -201 -231 -201 -41 0
-128 -8 -193 -17 -95 -13 -129 -14 -165 -4 -57 14 -572 66 -798 81 -1 0 -41
44 -88 97 -84 94 -125 158 -139 217 -10 40 -36 359 -31 365 3 2 34 -26 69 -62
35 -37 68 -67 74 -67 6 0 12 -4 14 -8 4 -10 138 -92 151 -92 4 0 15 -7 24 -15
9 -10 24 -13 37 -10 17 5 18 4 6 -4 -13 -9 -12 -11 5 -12 11 -1 24 -1 28 0 5
1 6 -3 2 -8 -3 -6 -13 -7 -23 -4 -16 6 -16 6 0 -10 18 -19 33 -23 23 -7 -9 15
31 12 44 -3 6 -8 7 -18 3 -22 -4 -5 1 -5 10 -2 10 3 20 2 23 -3 4 -6 0 -10 -7
-11 -7 0 -3 -5 10 -11 28 -14 29 -32 1 -23 -15 5 -19 4 -15 -4 4 -6 16 -11 26
-11 10 0 22 -4 25 -10 3 -5 2 -10 -4 -10 -5 0 1 -12 14 -26 27 -29 24 -49 -7
-41 -16 4 -17 3 -7 -9 9 -11 8 -14 -4 -14 -41 0 -45 -57 -5 -75 13 -6 23 -17
23 -25 0 -9 20 -22 50 -32 52 -18 97 -24 60 -8 -19 8 -19 9 3 9 12 1 22 -5 23
-11 0 -10 2 -10 6 -1 3 10 13 9 41 -2 32 -13 34 -13 18 0 -16 12 -16 16 -5 28
8 8 21 16 29 20 11 4 10 6 -5 7 l-20 1 20 9 c19 8 19 9 1 9 -15 1 -17 6 -13
29 10 49 26 82 41 82 8 0 22 7 31 16 24 24 80 61 104 69 12 3 19 10 17 14 -3
4 4 8 15 8 25 2 51 22 43 34 -3 5 9 9 26 9 18 0 29 4 25 10 -3 6 -1 10 5 10 6
0 8 5 4 12 -4 6 -3 8 3 5 5 -3 31 16 57 44 26 27 53 49 60 49 8 0 19 7 27 16
7 8 20 13 30 11 13 -3 16 0 14 14 -2 11 0 19 4 19 5 0 25 16 45 35 35 32 66
40 49 12 -3 -7 3 -4 14 6 11 9 22 14 25 11 3 -3 9 -1 12 4 7 11 -13 10 -31 -1
-15 -10 -26 9 -16 27 4 8 10 15 13 15 3 0 16 4 29 9 20 7 21 10 8 15 -14 5 -7
17 37 64 118 127 165 179 187 208 13 17 29 36 36 43 7 7 29 42 49 78 26 47 40
62 47 55 17 -17 44 -13 52 7 7 16 8 15 15 -3 4 -11 15 -51 25 -90z m-2141 80
c6 -18 -29 -41 -39 -25 -7 11 12 40 25 40 4 0 10 -7 14 -15z m1966 9 c0 -1 -3
-9 -6 -18 -5 -13 -8 -13 -20 -1 -18 18 -18 21 6 21 11 0 20 -1 20 -2z m3108
-21 c-2 -10 -10 -18 -18 -18 -8 0 -16 8 -18 18 -2 12 3 17 18 17 15 0 20 -5
18 -17z m-3344 -69 c3 -8 2 -12 -4 -9 -6 3 -10 10 -10 16 0 14 7 11 14 -7z
m3336 -10 c0 -17 -26 -19 -36 -3 -7 12 15 31 28 23 4 -3 8 -12 8 -20z m-5311
-21 c-12 -21 -33 -49 -45 -63 -22 -23 -24 -23 -24 -5 0 41 48 97 88 104 2 1
-6 -16 -19 -36z m1944 2 c-3 -9 -8 -14 -10 -11 -3 3 -2 9 2 15 9 16 15 13 8
-4z m3 -70 c3 -14 10 -23 14 -20 5 3 12 0 16 -6 4 -8 3 -9 -4 -5 -7 4 -12 2
-12 -5 0 -8 -4 -8 -15 1 -8 7 -13 16 -10 20 3 5 1 11 -5 15 -13 8 -13 25 0 25
5 0 12 -11 16 -25z m1579 -5 c0 -23 -49 -20 -53 3 -3 15 2 18 25 15 17 -2 28
-9 28 -18z m-1641 -3 c3 3 6 -1 6 -10 0 -24 -27 -21 -40 4 -10 18 -10 19 8 10
11 -6 22 -7 26 -4z m27 -20 c-10 -9 -11 -8 -5 6 3 10 9 15 12 12 3 -3 0 -11
-7 -18z m23 -23 c3 -8 2 -12 -4 -9 -6 3 -10 10 -10 16 0 14 7 11 14 -7z
m-1530 -9 c-4 -8 -7 -15 -9 -15 -2 0 -5 7 -9 15 -3 9 0 15 9 15 9 0 12 -6 9
-15z m1380 -66 c-2 -4 -12 -9 -23 -12 -13 -3 -18 -1 -14 8 2 8 13 13 23 12 10
-1 17 -4 14 -8z m-1313 -8 c-11 -7 -11 -10 3 -14 15 -5 15 -5 0 -3 -24 2 -30
26 -7 26 14 0 15 -2 4 -9z m1234 -11 c3 -6 -1 -7 -9 -4 -18 7 -21 14 -7 14 6
0 13 -4 16 -10z m-1185 -45 c10 -12 10 -15 -2 -15 -8 0 -15 7 -15 15 0 8 1 15
2 15 2 0 8 -7 15 -15z m1144 -26 c-6 -11 -24 -2 -24 11 0 5 7 7 15 4 8 -4 12
-10 9 -15z m3254 -21 c-5 -13 -146 -63 -155 -55 -10 11 9 49 30 57 34 14 129
12 125 -2z m-3308 -8 c0 -5 -2 -10 -4 -10 -3 0 -8 5 -11 10 -3 6 -1 10 4 10 6
0 11 -4 11 -10z m1660 -64 c0 -8 -5 -18 -11 -22 -14 -8 -33 11 -25 25 10 16
36 13 36 -3z m-1969 -53 c-12 -20 -14 -14 -5 12 4 9 9 14 11 11 3 -2 0 -13 -6
-23z m1037 -28 c-3 -3 -9 2 -12 12 -6 14 -5 15 5 6 7 -7 10 -15 7 -18z m1176
-28 c9 -7 17 -17 16 -22 -5 -22 1 -34 18 -39 9 -2 6 -4 -8 -3 -14 2 -24 8 -22
15 1 6 -7 12 -17 12 -23 0 -35 15 -27 35 7 18 17 19 40 2z m1221 -138 c28 3
77 5 110 5 l60 1 -1 -35 c-5 -131 -29 -340 -39 -340 -6 0 -35 47 -64 105 -30
62 -61 109 -74 116 -12 7 -24 15 -27 19 -3 4 -29 15 -58 25 -44 14 -53 20 -50
38 2 13 16 28 35 36 28 12 31 18 26 43 -3 17 0 35 8 45 13 14 15 12 19 -23 l5
-39 50 4z m-3628 -215 c-3 -3 -12 -4 -19 -1 -8 3 -5 6 6 6 11 1 17 -2 13 -5z
m1161 -25 c1 -58 -35 -114 -133 -204 -51 -47 -96 -85 -99 -85 -17 0 -1 24 47
69 29 27 81 95 117 150 36 55 65 101 66 101 1 0 1 -14 2 -31z m2364 -126 c-10
-4 -10 -8 -1 -19 9 -11 8 -14 -3 -14 -8 0 -18 3 -21 7 -9 8 12 33 27 32 6 0 6
-3 -2 -6z m-2047 -63 c3 -5 1 -10 -4 -10 -6 0 -11 5 -11 10 0 6 2 10 4 10 3 0
8 -4 11 -10z m-95 -9 c0 -6 -4 -12 -8 -15 -5 -3 -9 1 -9 9 0 8 4 15 9 15 4 0
8 -4 8 -9z m50 -22 c0 -5 -4 -9 -10 -9 -5 0 -10 7 -10 16 0 8 5 12 10 9 6 -3
10 -10 10 -16z m-4350 -7 c0 -14 -11 -21 -26 -15 -8 3 -11 9 -8 14 7 11 34 12
34 1z m4425 -31 c0 -18 -6 -25 -23 -26 -13 -1 -28 -8 -33 -16 -7 -12 -9 -12
-9 1 0 26 16 41 36 35 18 -6 18 -6 2 8 -24 19 -22 29 5 25 16 -2 22 -10 22
-27z m-78 -35 c-7 -13 -16 -22 -20 -19 -5 3 -6 -4 -2 -16 8 -26 2 -26 -32 -4
-26 17 -27 17 -20 0 3 -9 2 -17 -3 -17 -6 0 -10 5 -10 10 0 6 -10 10 -22 10
-13 0 -18 -3 -12 -8 6 -4 11 -23 12 -42 1 -29 -1 -32 -9 -17 -8 14 -14 16 -25
6 -8 -6 -14 -18 -14 -26 0 -11 -3 -11 -14 -1 -13 11 -12 15 6 29 12 9 22 23
24 32 2 16 33 67 41 67 2 0 2 -4 -1 -9 -3 -5 1 -11 9 -15 10 -4 15 1 15 15 0
11 5 17 10 14 6 -3 10 2 11 12 0 14 2 14 9 -4 5 -13 12 -23 15 -23 4 0 3 5 0
10 -3 6 -2 10 4 10 6 0 8 7 4 16 -5 14 -3 15 15 5 17 -9 19 -14 9 -35z m89
-37 c16 -17 16 -22 4 -29 -8 -6 -19 -10 -23 -10 -5 0 -5 -5 -2 -10 3 -6 -1
-18 -11 -27 -16 -16 -16 -16 -10 5 14 43 16 71 6 77 -5 3 -10 1 -10 -4 0 -6
-8 -11 -17 -11 -17 -1 -17 -1 0 -11 24 -14 21 -24 -7 -27 -20 -1 -23 2 -18 21
12 46 57 60 88 26z m-89 -81 c-3 -8 -6 -5 -6 6 -1 11 2 17 5 13 3 -3 4 -12 1
-19z m-248 -36 c-1 -15 -2 -15 -6 1 -2 9 -9 14 -15 11 -7 -4 -8 -2 -4 5 10 15
26 4 25 -17z m98 -7 c0 -8 -4 -12 -9 -9 -4 3 -8 9 -8 15 0 5 4 9 8 9 5 0 9 -7
9 -15z m101 -26 c10 -3 7 -10 -10 -24 -15 -13 -18 -14 -10 -3 9 12 10 18 2 23
-12 7 -24 0 -26 -16 -1 -5 -2 -13 -3 -17 -2 -17 -69 -84 -74 -75 -3 5 6 19 19
32 19 18 22 26 12 32 -7 5 -16 3 -20 -4 -6 -9 -8 -9 -8 0 0 19 20 26 36 12 19
-15 31 -4 15 15 -10 11 -8 17 10 30 13 9 27 12 33 7 6 -5 17 -10 24 -12z
m-248 -38 c0 -6 -4 -12 -8 -15 -5 -3 -9 1 -9 9 0 8 4 15 9 15 4 0 8 -4 8 -9z
m120 -20 c0 -4 -6 -8 -14 -8 -8 0 -12 6 -9 14 5 13 23 9 23 -6z m-170 -11 c0
-5 -2 -10 -4 -10 -3 0 -8 5 -11 10 -3 6 -1 10 4 10 6 0 11 -4 11 -10z m150
-46 c0 -10 -5 -14 -16 -10 -8 3 -12 2 -9 -4 3 -6 1 -10 -4 -10 -18 0 -12 28 7
33 9 3 18 5 20 6 1 0 2 -6 2 -15z m-70 -55 c0 -6 -4 -7 -10 -4 -5 3 -10 1 -10
-6 0 -7 -2 -10 -5 -7 -9 8 6 38 16 32 5 -3 9 -10 9 -15z m-162 -34 c-3 -3 -9
2 -12 12 -6 14 -5 15 5 6 7 -7 10 -15 7 -18z m-25 -25 c3 -11 1 -18 -4 -14 -5
3 -9 12 -9 20 0 20 7 17 13 -6z m-63 -46 c0 -8 -4 -12 -10 -9 -5 3 -10 10 -10
16 0 5 5 9 10 9 6 0 10 -7 10 -16z m40 12 c0 -2 -7 -6 -15 -10 -8 -3 -15 -1
-15 4 0 6 7 10 15 10 8 0 15 -2 15 -4z m-110 -12 c0 -8 -32 -33 -43 -34 -4 0
-2 9 5 20 12 19 38 28 38 14z m-410 -139 c0 -8 -7 -15 -15 -15 -26 0 -18 20
13 29 1 1 2 -6 2 -14z m-185 -52 c-7 -6 -21 -10 -31 -8 -10 2 -22 4 -26 4 -5
1 -8 4 -8 9 0 4 17 7 38 7 30 0 36 -2 27 -12z m-205 -27 c0 -2 -7 -9 -15 -16
-13 -11 -14 -10 -9 4 5 14 24 23 24 12z m47 -32 c-3 -3 -12 -4 -19 -1 -8 3 -5
6 6 6 11 1 17 -2 13 -5z"/>
<path d="M7565 7071 c-3 -6 4 -9 15 -8 11 1 20 5 20 9 0 11 -28 10 -35 -1z"/>
<path d="M7386 7042 c-3 -5 1 -9 9 -9 8 0 15 4 15 9 0 4 -4 8 -9 8 -6 0 -12
-4 -15 -8z"/>
<path d="M4661 5994 c0 -11 3 -14 6 -6 3 7 2 16 -1 19 -3 4 -6 -2 -5 -13z"/>
<path d="M7255 5530 c-3 -5 3 -10 14 -10 12 0 21 5 21 10 0 6 -6 10 -14 10 -8
0 -18 -4 -21 -10z"/>
<path d="M2874 5311 c-55 -25 -94 -60 -94 -84 0 -16 6 -14 41 17 42 39 66 51
139 72 l45 13 -45 0 c-25 0 -64 -8 -86 -18z"/>
<path d="M2550 5268 c0 -17 3 -28 7 -25 9 10 10 57 1 57 -4 0 -8 -14 -8 -32z"/>
<path d="M3144 5051 c6 -10 4 -12 -11 -7 -19 6 -20 4 -9 -36 6 -24 15 -46 21
-50 6 -5 6 -8 -2 -8 -7 0 -10 -7 -7 -15 4 -8 -1 -17 -10 -21 -22 -8 -20 -21 3
-27 19 -5 80 30 81 46 0 5 -6 5 -12 1 -10 -6 -10 -4 0 7 16 18 15 39 -2 39 -8
0 -17 13 -21 29 -3 16 -14 36 -23 43 -13 11 -14 11 -8 -1z"/>
<path d="M3018 5025 c-25 -34 -22 -43 3 -11 12 15 20 29 18 31 -2 1 -12 -7
-21 -20z"/>
<path d="M3346 5041 c-4 -5 3 -7 14 -4 23 6 26 13 6 13 -8 0 -17 -4 -20 -9z"/>
<path d="M4348 5293 c7 -3 16 -2 19 1 4 3 -2 6 -13 5 -11 0 -14 -3 -6 -6z"/>
<path d="M4421 5261 c24 -15 55 -40 68 -55 14 -14 31 -26 40 -26 12 0 11 4 -5
18 -28 26 -127 92 -138 92 -6 0 10 -13 35 -29z"/>
<path d="M3850 5106 c0 -2 8 -10 18 -17 15 -13 16 -12 3 4 -13 16 -21 21 -21
13z"/>
<path d="M3913 5063 c14 -15 29 -24 33 -20 10 10 -13 34 -38 40 -20 6 -20 4 5
-20z"/>
<path d="M3860 5040 c0 -6 7 -10 15 -10 8 0 15 2 15 4 0 2 -7 6 -15 10 -8 3
-15 1 -15 -4z"/>
<path d="M4370 4880 c-20 -12 4 -20 36 -11 l29 8 -27 5 c-15 3 -32 2 -38 -2z"/>
<path d="M6188 4463 c7 -3 16 -2 19 1 4 3 -2 6 -13 5 -11 0 -14 -3 -6 -6z"/>
<path d="M5222 3540 c-26 -21 -22 -24 60 -35 45 -7 69 -27 47 -41 -6 -3 -41
-4 -77 -1 -37 3 -58 3 -47 1 11 -3 26 -13 33 -22 9 -12 15 -13 24 -4 7 7 35
12 63 12 27 0 60 3 72 6 22 6 22 7 6 35 -17 29 -58 49 -99 49 -13 0 -26 5 -29
10 -9 15 -27 12 -53 -10z"/>
<path d="M5107 3513 c-13 -13 -7 -24 19 -34 33 -12 39 -7 22 20 -13 21 -29 27
-41 14z"/>
<path d="M5107 3413 c-13 -12 -7 -90 8 -103 18 -15 45 -10 59 12 8 14 4 24
-22 51 -18 18 -29 36 -26 40 4 4 3 7 -3 7 -5 0 -13 -3 -16 -7z"/>
<path d="M4456 3268 c3 -4 11 -5 19 -1 21 7 19 12 -4 10 -11 0 -18 -5 -15 -9z"/>
<path d="M4010 2830 c-9 -6 -10 -10 -3 -10 6 0 15 5 18 10 8 12 4 12 -15 0z"/>
<path d="M3935 2800 c3 -5 10 -10 16 -10 5 0 9 5 9 10 0 6 -7 10 -16 10 -8 0
-12 -4 -9 -10z"/>
<path d="M3848 2763 c6 -2 18 -2 25 0 6 3 1 5 -13 5 -14 0 -19 -2 -12 -5z"/>
<path d="M4285 2470 c4 -6 11 -8 16 -5 14 9 11 15 -7 15 -8 0 -12 -5 -9 -10z"/>
<path d="M4940 2372 c0 -5 7 -13 16 -16 10 -4 14 -1 12 6 -5 15 -28 23 -28 10z"/>
<path d="M2857 7059 c7 -7 15 -10 18 -7 3 3 -2 9 -12 12 -14 6 -15 5 -6 -5z"/>
<path d="M4817 6703 c3 -7 6 -13 8 -13 2 0 5 6 8 13 3 8 -1 14 -8 14 -7 0 -11
-6 -8 -14z"/>
<path d="M4940 6509 c0 -5 5 -7 10 -4 6 3 10 8 10 11 0 2 -4 4 -10 4 -5 0 -10
-5 -10 -11z"/>
<path d="M2550 6373 c0 -13 5 -23 10 -23 13 0 13 11 0 30 -8 12 -10 11 -10 -7z"/>
<path d="M2580 6365 c7 -8 17 -12 22 -9 6 4 5 10 -3 15 -22 14 -33 10 -19 -6z"/>
<path d="M5051 6334 c0 -11 3 -14 6 -6 3 7 2 16 -1 19 -3 4 -6 -2 -5 -13z"/>
<path d="M3933 6292 c3 -29 1 -32 -17 -26 -20 6 -20 6 -3 -13 9 -11 17 -27 17
-35 0 -9 7 -19 16 -22 13 -5 14 -3 7 6 -5 7 -13 22 -16 33 -5 14 0 11 18 -10
13 -16 34 -40 46 -52 12 -13 18 -27 13 -34 -4 -7 -3 -10 3 -6 6 4 22 -4 36
-17 15 -14 34 -26 43 -28 10 -2 19 -9 22 -16 3 -9 -10 -7 -45 6 -47 18 -49 18
-50 0 -2 -19 36 -32 117 -41 40 -4 42 -3 18 6 -28 11 -38 27 -18 27 21 0 71
-31 65 -40 -4 -6 -1 -10 4 -10 6 0 11 5 11 10 0 6 7 10 15 10 8 0 15 5 15 10
0 6 -11 10 -25 10 -37 0 -95 27 -95 43 0 14 -31 47 -44 47 -3 0 2 -12 11 -27
17 -26 17 -27 0 -20 -10 4 -21 7 -23 7 -2 0 -4 9 -4 19 0 11 -5 23 -12 27 -8
5 -9 2 -5 -9 9 -24 2 -21 -16 7 -15 22 -15 23 8 21 17 -2 22 1 18 11 -7 19 12
18 31 -2 14 -13 16 -13 16 -1 0 8 -7 17 -15 21 -8 3 -15 13 -15 23 0 15 -2 16
-10 3 -5 -8 -10 -11 -10 -6 0 5 -6 3 -14 -3 -11 -10 -16 -8 -21 7 -4 14 -12
18 -25 15 -21 -6 -50 17 -50 39 0 7 -5 20 -11 28 -8 11 -9 7 -6 -18z m87 -72
c0 -5 -4 -10 -10 -10 -5 0 -10 5 -10 10 0 6 5 10 10 10 6 0 10 -4 10 -10z"/>
<path d="M3836 6267 c3 -10 9 -15 12 -12 3 3 0 11 -7 18 -10 9 -11 8 -5 -6z"/>
<path d="M3927 6166 c-4 -10 -1 -13 8 -9 8 3 12 9 9 14 -7 12 -11 11 -17 -5z"/>
<path d="M2346 6140 c-127 -24 -144 -40 -24 -23 130 18 157 24 164 34 7 13
-26 10 -140 -11z"/>
<path d="M3940 6140 c0 -5 6 -10 14 -10 8 0 17 -6 19 -12 4 -10 6 -10 6 -1 1
7 -8 17 -19 23 -14 7 -20 7 -20 0z"/>
<path d="M3985 6090 c3 -5 10 -10 16 -10 5 0 9 5 9 10 0 6 -7 10 -16 10 -8 0
-12 -4 -9 -10z"/>
<path d="M1715 6021 c-11 -5 -60 -14 -110 -20 -212 -29 -476 -83 -464 -95 5
-6 247 35 413 68 155 31 168 32 184 6 17 -27 42 -15 42 21 0 24 -4 29 -22 28
-13 0 -32 -4 -43 -8z"/>
<path d="M4787 5917 c-3 -8 -1 -20 4 -28 6 -10 9 -7 9 14 0 29 -5 35 -13 14z"/>
<path d="M535 5802 c-7 -5 -7 -36 -1 -92 l9 -85 14 60 c27 114 27 125 7 125
-11 0 -24 -4 -29 -8z"/>
<path d="M557 5487 c-3 -9 -4 -30 -2 -45 3 -15 10 -108 15 -207 10 -161 26
-289 29 -228 2 33 19 37 24 6 3 -21 4 -19 6 12 1 22 6 47 11 55 7 11 4 19 -11
31 -20 15 -20 17 -4 33 16 15 16 28 5 151 -7 74 -16 132 -21 130 -4 -3 -10 1
-12 7 -3 7 -6 2 -6 -11 -1 -37 -12 -18 -19 36 -5 33 -10 42 -15 30z"/>
<path d="M2236 5358 c2 -24 3 -65 4 -93 0 -37 3 -46 10 -35 9 13 12 12 26 -5
15 -20 15 -20 30 -1 8 12 14 42 14 73 0 53 -13 71 -23 33 -6 -24 -35 -26 -44
-3 -4 9 1 29 10 45 16 27 15 28 -7 28 -20 0 -22 -4 -20 -42z"/>
<path d="M5673 5389 c-24 -9 -32 -49 -10 -49 6 0 39 9 72 20 52 16 56 19 27
19 -18 1 -41 5 -50 10 -10 5 -27 5 -39 0z"/>
<path d="M4685 5370 c3 -5 8 -10 11 -10 2 0 4 5 4 10 0 6 -5 10 -11 10 -5 0
-7 -4 -4 -10z"/>
<path d="M2435 5360 c-8 -13 -1 -24 14 -19 6 3 7 10 2 18 -6 10 -10 10 -16 1z"/>
<path d="M1621 5250 c0 -29 1 -32 10 -17 7 11 7 23 0 35 -9 14 -10 11 -10 -18z"/>
<path d="M3756 5272 c6 -4 14 -14 17 -22 4 -10 6 -8 6 8 1 15 -5 22 -16 22
-11 0 -14 -3 -7 -8z"/>
<path d="M2382 5240 c-1 -16 2 -30 8 -30 5 0 10 4 10 10 0 5 7 7 15 4 20 -8
45 13 38 32 -3 8 -19 14 -37 14 -28 0 -32 -3 -34 -30z"/>
<path d="M3715 5230 c3 -5 8 -10 11 -10 2 0 4 5 4 10 0 6 -5 10 -11 10 -5 0
-7 -4 -4 -10z"/>
<path d="M1430 5170 c0 -22 3 -30 9 -22 4 7 14 12 22 10 9 -2 15 7 17 23 3 23
0 27 -22 25 -23 -1 -26 -5 -26 -36z"/>
<path d="M1685 5169 c-4 -6 -5 -12 -2 -15 2 -3 7 2 10 11 7 17 1 20 -8 4z"/>
<path d="M5084 5076 c-10 -8 -17 -16 -14 -19 3 -2 14 4 24 14 23 22 18 25 -10
5z"/>
<path d="M5129 5008 c-41 -45 -46 -57 -28 -75 6 -6 13 -35 16 -64 3 -30 9 -56
13 -59 5 -3 10 -23 12 -45 l3 -40 24 45 c29 53 45 146 42 238 -1 36 -4 42 -22
42 -12 0 -38 -18 -60 -42z"/>
<path d="M7948 4983 c6 -2 9 -10 6 -15 -4 -7 -2 -8 5 -4 13 9 5 26 -12 25 -9
0 -8 -2 1 -6z"/>
<path d="M606 4730 c3 -199 17 -476 39 -795 22 -328 35 -580 37 -767 l3 -168
38 0 c20 0 40 0 45 0 4 0 10 27 13 61 7 73 23 89 86 89 38 0 43 2 35 18 -5 9
-12 53 -16 97 -3 44 -13 154 -21 245 -8 91 -19 253 -25 360 -5 107 -12 209
-15 225 -3 17 -8 93 -11 169 -4 99 -10 146 -21 162 -8 13 -12 27 -9 32 3 6 6
65 7 133 1 117 -1 124 -22 142 -13 10 -31 16 -41 14 -24 -7 -59 26 -68 65 l-8
33 -2 -35 c-1 -19 -5 -44 -10 -55 -8 -19 -9 -18 -11 5 -1 14 -2 31 -2 37 1 7
-3 10 -8 8 -4 -3 -10 18 -12 47 -3 29 -3 -26 -1 -122z m51 -42 c-2 -13 -4 -5
-4 17 -1 22 1 32 4 23 2 -10 2 -28 0 -40z"/>
<path d="M632 4850 c0 -19 2 -27 5 -17 2 9 2 25 0 35 -3 9 -5 1 -5 -18z"/>
<path d="M1000 4811 c0 -6 5 -13 10 -16 6 -3 10 1 10 9 0 9 -4 16 -10 16 -5 0
-10 -4 -10 -9z"/>
<path d="M1735 4760 c-3 -5 -1 -10 4 -10 6 0 11 5 11 10 0 6 -2 10 -4 10 -3 0
-8 -4 -11 -10z"/>
<path d="M451 4604 c0 -11 3 -14 6 -6 3 7 2 16 -1 19 -3 4 -6 -2 -5 -13z"/>
<path d="M3080 4601 c-19 -3 -63 -6 -97 -6 -40 0 -63 -4 -63 -11 0 -15 31 -20
110 -19 68 1 110 11 110 25 0 13 -22 17 -60 11z"/>
<path d="M3710 4518 c-52 -19 -56 -19 -83 -3 -21 13 -32 14 -40 6 -6 -6 -23
-11 -38 -11 -18 0 -34 -9 -46 -26 l-19 -26 -51 18 c-49 17 -52 17 -93 -1 -49
-22 -83 -85 -46 -85 8 0 16 -6 18 -12 3 -9 27 -13 71 -13 37 0 67 -4 67 -8 0
-5 5 -5 10 -2 6 3 10 2 10 -2 0 -5 15 -17 34 -27 22 -12 33 -23 29 -33 -3 -8
-12 -12 -20 -9 -8 3 -12 2 -9 -3 8 -12 -44 -35 -74 -33 l-25 2 25 -11 c18 -7
21 -12 11 -18 -10 -6 -9 -10 4 -14 9 -4 13 -3 10 3 -3 6 2 10 12 11 11 0 13 3
5 6 -6 2 -10 9 -7 13 12 19 35 -3 35 -32 0 -27 3 -30 25 -26 26 5 36 -16 13
-25 -9 -4 -9 -6 -2 -6 7 -1 21 17 32 40 15 31 17 39 6 35 -23 -9 -28 21 -7 42
23 24 73 38 73 20 1 -8 7 -5 15 6 8 11 15 16 15 12 0 -5 8 2 18 14 21 26 104
45 132 30 32 -17 82 -11 126 15 56 33 87 83 44 72 -10 -3 -24 1 -31 9 -6 8
-41 23 -76 34 -36 11 -77 28 -91 38 -26 18 -28 18 -82 0z m-167 -315 c-6 -16
-25 -13 -31 5 -2 6 6 10 16 9 12 -1 18 -6 15 -14z"/>
<path d="M915 4510 c-3 -5 1 -10 10 -10 9 0 13 5 10 10 -3 6 -8 10 -10 10 -2
0 -7 -4 -10 -10z"/>
<path d="M1000 4510 c0 -5 7 -10 16 -10 8 0 12 5 9 10 -3 6 -10 10 -16 10 -5
0 -9 -4 -9 -10z"/>
<path d="M3713 4303 l-21 -19 21 -17 c12 -9 17 -17 11 -17 -6 0 -21 10 -33 21
-19 18 -25 19 -32 8 -5 -8 -9 -20 -9 -26 0 -7 -5 -13 -11 -13 -5 0 -7 -5 -3
-11 4 -8 11 -5 18 9 20 37 61 16 52 -27 -3 -14 -3 -20 0 -13 3 6 11 9 17 5 7
-3 9 -3 5 2 -4 4 3 16 15 25 l22 18 -23 25 c-14 15 -19 27 -13 31 5 4 12 -3
16 -13 4 -12 12 -18 21 -14 10 4 12 0 8 -12 -6 -15 -4 -16 15 -5 25 13 21 22
-11 27 -11 2 -26 10 -32 19 -10 13 -14 13 -33 -3z"/>
<path d="M4192 4312 c-19 -6 -14 -42 10 -61 12 -10 23 -28 25 -41 2 -13 11
-32 20 -42 9 -10 11 -18 6 -18 -6 0 -17 7 -24 16 -12 14 -14 14 -20 -3 -7 -16
-8 -16 -8 -1 -1 9 -6 20 -13 24 -7 5 -8 3 -3 -6 6 -10 4 -12 -8 -7 -9 3 -17 1
-20 -6 -2 -6 -6 -2 -9 10 -4 16 -2 20 8 16 8 -3 14 1 14 8 0 7 -3 9 -7 6 -3
-4 -15 1 -25 10 -16 14 -18 14 -13 1 5 -13 -1 -15 -37 -13 -24 1 -35 1 -25 -2
9 -2 15 -9 12 -14 -4 -5 1 -9 9 -9 9 0 16 5 16 10 0 6 5 10 11 10 8 0 9 -4 0
-13 -6 -8 -8 -17 -4 -21 4 -4 0 -4 -10 0 -10 3 -17 1 -17 -6 0 -6 8 -10 18 -8
9 2 17 10 17 17 0 8 6 16 13 19 7 2 12 -5 12 -17 0 -12 -5 -21 -10 -21 -7 0
-7 -6 -1 -19 8 -14 7 -20 -4 -24 -10 -4 -12 -1 -8 11 6 16 5 16 -11 0 -20 -21
-36 -23 -36 -6 0 9 -3 9 -12 0 -9 -9 -8 -16 6 -30 11 -9 16 -12 12 -6 -8 16
26 28 35 12 4 -6 5 -16 2 -22 -3 -5 -2 -6 4 -3 12 8 53 -20 53 -36 0 -22 -54
-35 -165 -41 -165 -9 -226 -7 -224 8 1 13 -23 26 -36 18 -5 -4 -68 -8 -140 -9
-71 -1 -211 -4 -310 -7 -104 -3 -186 -1 -195 4 -16 10 -21 71 -6 81 4 4 3 10
-3 13 -6 4 -11 2 -11 -3 0 -6 -4 -11 -10 -11 -21 0 -9 18 21 30 21 9 27 15 18
21 -8 4 -20 3 -28 -4 -12 -10 -13 -9 -7 2 5 8 4 16 -4 21 -8 5 -3 10 14 14 14
3 26 11 26 17 0 8 -5 7 -15 -1 -8 -7 -22 -9 -31 -6 -13 5 -14 9 -4 21 11 13
10 14 -6 9 -10 -4 -24 -11 -30 -15 -6 -5 -13 -7 -16 -4 -3 3 -11 -2 -19 -12
-12 -15 -12 -16 1 -8 12 7 13 6 4 -6 -7 -8 -8 -22 -3 -34 10 -27 11 -43 0 -26
-5 7 -14 10 -20 7 -6 -4 -9 -11 -6 -16 3 -4 -2 -13 -10 -20 -14 -11 -14 -10
-5 14 12 34 12 36 0 36 -5 0 -10 -7 -10 -15 0 -8 -5 -15 -11 -15 -7 0 -6 9 4
23 12 19 13 24 2 24 -8 0 -12 -4 -9 -9 3 -4 -2 -11 -10 -14 -20 -8 -21 -34 -1
-34 8 0 15 -7 15 -16 0 -10 -6 -14 -14 -11 -10 4 -13 1 -10 -8 4 -11 12 -12
31 -4 23 8 24 8 13 -6 -10 -12 -10 -18 0 -30 10 -13 11 -18 1 -28 -10 -9 -11
-8 -5 8 7 18 6 19 -10 6 -17 -14 -16 -17 15 -42 27 -22 37 -25 56 -16 13 5 23
14 23 19 0 12 31 5 78 -20 23 -12 49 -22 56 -22 8 0 37 -11 64 -25 28 -14 54
-25 60 -25 5 0 26 -12 47 -26 22 -14 41 -21 44 -16 3 6 17 12 31 13 22 4 25 9
25 46 0 24 3 43 8 43 64 1 77 -2 102 -26 19 -18 26 -32 22 -50 -4 -22 -1 -24
39 -24 23 0 46 5 49 10 4 7 -5 9 -24 5 -35 -6 -39 5 -14 35 17 19 81 29 96 14
9 -9 -16 -44 -30 -44 -7 0 -13 -4 -13 -8 0 -5 47 -8 104 -8 57 1 102 4 100 8
-3 4 5 12 16 18 16 9 25 8 35 0 16 -13 35 -5 35 15 0 8 7 11 20 8 11 -3 20 -1
20 4 0 5 13 8 29 5 18 -2 42 4 67 20 37 23 130 58 154 58 6 0 8 -4 5 -10 -3
-6 1 -7 9 -4 10 4 16 1 16 -9 0 -9 5 -19 12 -23 7 -5 8 -3 3 6 -5 9 -2 10 13
6 22 -7 62 23 62 46 0 7 -7 3 -15 -10 -17 -24 -67 -28 -58 -5 3 7 9 13 15 13
5 0 6 -4 3 -10 -3 -5 -1 -10 4 -10 14 0 14 27 1 35 -6 4 -8 15 -5 26 5 15 1
19 -14 19 -14 0 -21 6 -21 19 0 12 -7 18 -21 17 -12 0 -28 9 -37 22 -14 21
-13 22 3 16 14 -6 16 -4 10 6 -5 9 -4 11 4 6 6 -4 9 -12 6 -17 -4 -5 -3 -9 2
-10 4 0 20 -2 35 -3 l27 -2 -19 34 c-23 38 -24 42 -9 42 5 0 7 -5 3 -12 -5 -7
-2 -9 7 -6 8 3 20 -1 27 -8 10 -12 10 -14 -3 -14 -9 0 -14 -4 -10 -10 3 -5 13
-7 23 -4 10 4 13 2 7 -3 -12 -10 -16 -45 -5 -38 8 5 20 -18 20 -38 0 -7 -4 -6
-10 3 -6 9 -10 10 -10 3 0 -21 21 -25 36 -7 11 13 14 14 11 4 -2 -8 -1 -24 4
-35 l8 -20 1 20 c2 11 2 24 1 29 -1 5 5 6 13 3 12 -5 13 -1 6 18 -5 14 -7 25
-5 25 5 0 -27 85 -52 137 -19 40 -133 115 -161 105z m74 -140 c-9 -8 -26 10
-26 26 1 15 2 15 15 -2 8 -11 13 -21 11 -24z m-1216 -22 c0 -5 -9 -14 -20 -20
-19 -10 -20 -10 -8 9 13 22 28 28 28 11z m0 -48 c0 -5 -7 -9 -15 -9 -8 0 -15
4 -15 9 0 4 7 8 15 8 8 0 15 -4 15 -8z m30 -42 c0 -5 -5 -10 -11 -10 -5 0 -7
5 -4 10 3 6 8 10 11 10 2 0 4 -4 4 -10z m1127 -22 c-3 -8 -6 -5 -6 6 -1 11 2
17 5 13 3 -3 4 -12 1 -19z m58 12 c3 -5 1 -10 -4 -10 -6 0 -11 5 -11 10 0 6 2
10 4 10 3 0 8 -4 11 -10z"/>
<path d="M3448 4303 c7 -3 16 -2 19 1 4 3 -2 6 -13 5 -11 0 -14 -3 -6 -6z"/>
<path d="M3906 4258 c3 -5 10 -6 15 -3 13 9 11 12 -6 12 -8 0 -12 -4 -9 -9z"/>
<path d="M3675 4230 c-21 -9 -48 -39 -53 -59 -1 -7 2 -10 7 -7 5 4 12 2 16 -4
8 -13 45 -13 45 1 0 5 5 7 10 4 6 -3 10 -1 10 6 0 7 -11 10 -31 7 l-30 -5 27
22 c30 24 30 47 -1 35z"/>
<path d="M3783 4233 c9 -2 23 -2 30 0 6 3 -1 5 -18 5 -16 0 -22 -2 -12 -5z"/>
<path d="M3834 4232 c3 -6 -2 -13 -11 -15 -14 -4 -13 -5 5 -6 23 -1 30 13 10
25 -6 4 -8 3 -4 -4z"/>
<path d="M3886 4229 c4 -7 1 -10 -7 -7 -7 2 -24 -7 -36 -20 -25 -27 -31 -41
-10 -23 10 8 17 7 27 -2 10 -10 11 -9 5 2 -6 10 -4 13 7 8 10 -3 15 0 14 10 0
9 5 18 13 21 8 3 11 0 7 -7 -4 -6 -2 -11 3 -11 6 0 11 4 11 9 0 5 8 12 18 14
9 2 7 3 -6 2 -12 -1 -25 2 -28 6 -3 5 -10 9 -15 9 -6 0 -7 -5 -3 -11z"/>
<path d="M4200 4230 c0 -5 5 -10 11 -10 5 0 7 5 4 10 -3 6 -8 10 -11 10 -2 0
-4 -4 -4 -10z"/>
<path d="M3995 4220 c-4 -6 -10 -8 -15 -5 -5 3 -12 0 -16 -6 -4 -8 -3 -9 4 -5
7 4 12 1 12 -9 0 -13 3 -13 13 -3 8 7 14 18 14 25 0 16 -4 16 -12 3z"/>
<path d="M4205 4200 c-3 -5 -1 -10 4 -10 6 0 11 5 11 10 0 6 -2 10 -4 10 -3 0
-8 -4 -11 -10z"/>
<path d="M4035 4182 c-12 -9 -18 -32 -7 -31 4 1 16 1 27 -1 l20 -1 -20 -10
c-19 -9 -19 -9 2 -5 12 2 24 -1 26 -7 2 -6 5 -7 8 -2 7 14 -44 66 -56 57z"/>
<path d="M4575 4095 c-1 -52 1 -92 3 -91 2 2 7 34 13 70 7 50 6 73 -3 91 -11
21 -13 11 -13 -70z"/>
<path d="M4380 4175 c0 -5 5 -17 10 -25 5 -8 10 -10 10 -5 0 6 -5 17 -10 25
-5 8 -10 11 -10 5z"/>
<path d="M3640 4140 c8 -5 20 -10 25 -10 6 0 3 5 -5 10 -8 5 -19 10 -25 10 -5
0 -3 -5 5 -10z"/>
<path d="M3835 4120 c3 -5 8 -10 11 -10 2 0 4 5 4 10 0 6 -5 10 -11 10 -5 0
-7 -4 -4 -10z"/>
<path d="M4471 4125 c-1 -21 14 -34 29 -25 13 8 13 10 -2 10 -9 0 -19 6 -21
13 -3 6 -6 8 -6 2z"/>
<path d="M3129 4053 c-13 -16 -12 -17 4 -4 16 13 21 21 13 21 -2 0 -10 -8 -17
-17z"/>
<path d="M4290 4055 c0 -8 2 -15 4 -15 2 0 6 7 10 15 3 8 1 15 -4 15 -6 0 -10
-7 -10 -15z"/>
<path d="M3042 3920 c0 -14 2 -19 5 -12 2 6 2 18 0 25 -3 6 -5 1 -5 -13z"/>
<path d="M2956 3921 c-4 -6 -3 -19 3 -28 9 -17 10 -17 17 0 8 21 -10 45 -20
28z"/>
<path d="M4231 3894 c0 -11 3 -14 6 -6 3 7 2 16 -1 19 -3 4 -6 -2 -5 -13z"/>
<path d="M4621 3894 c0 -11 3 -14 6 -6 3 7 2 16 -1 19 -3 4 -6 -2 -5 -13z"/>
<path d="M4650 3881 c0 -6 4 -13 10 -16 6 -3 7 1 4 9 -7 18 -14 21 -14 7z"/>
<path d="M2971 3866 c-9 -11 -9 -16 1 -22 7 -4 10 -4 6 1 -4 4 -3 14 3 22 6 7
9 13 6 13 -2 0 -10 -6 -16 -14z"/>
<path d="M4636 3852 c-3 -6 -1 -14 5 -17 15 -10 25 3 12 16 -7 7 -13 7 -17 1z"/>
<path d="M1323 3833 c9 -2 23 -2 30 0 6 3 -1 5 -18 5 -16 0 -22 -2 -12 -5z"/>
<path d="M4621 3820 c0 -8 4 -22 9 -30 12 -18 12 -2 0 25 -6 13 -9 15 -9 5z"/>
<path d="M4737 3793 c-4 -3 -7 -11 -7 -17 0 -6 5 -5 12 2 6 6 9 14 7 17 -3 3
-9 2 -12 -2z"/>
<path d="M4683 3765 c0 -8 4 -15 9 -15 4 0 8 7 8 15 0 8 -4 15 -8 15 -5 0 -9
-7 -9 -15z"/>
<path d="M4605 3720 c3 -5 8 -10 11 -10 2 0 4 5 4 10 0 6 -5 10 -11 10 -5 0
-7 -4 -4 -10z"/>
<path d="M3812 3706 c-29 -6 -57 -17 -61 -25 -6 -9 -11 -10 -15 -2 -4 6 -12 8
-18 5 -26 -16 -188 -20 -198 -4 -5 7 -10 8 -14 2 -6 -11 -137 -9 -155 2 -6 4
-11 1 -11 -6 0 -10 -3 -9 -11 2 -8 11 -9 8 -4 -13 4 -19 2 -26 -4 -22 -7 3 -8
0 -5 -9 3 -9 11 -13 16 -10 6 4 8 -2 3 -16 -5 -15 -1 -27 14 -41 12 -11 21
-27 21 -35 0 -8 5 -12 10 -9 12 7 113 -25 118 -38 2 -4 10 -3 17 3 7 6 21 7
34 2 12 -4 48 -4 79 0 31 4 76 9 98 11 35 2 49 10 88 50 25 27 46 52 46 57 0
8 -39 25 -75 33 -18 4 -18 5 3 6 12 0 22 6 22 11 0 6 7 10 15 10 18 0 20 16 3
24 -7 3 -3 3 10 0 13 -3 28 1 38 10 18 19 14 19 -64 2z m26 -102 c2 -1 -4 -4
-13 -8 -9 -3 -13 -2 -10 4 3 6 1 10 -4 10 -6 0 -11 5 -11 11 0 8 6 7 18 -2 9
-7 18 -14 20 -15z"/>
<path d="M4307 3696 c-4 -9 -3 -15 2 -12 12 8 22 -20 15 -41 -5 -17 -5 -17 6
-1 8 13 7 24 -3 44 -12 22 -15 24 -20 10z"/>
<path d="M4510 3610 c6 -11 13 -20 16 -20 2 0 0 9 -6 20 -6 11 -13 20 -16 20
-2 0 0 -9 6 -20z"/>
<path d="M4216 3589 c3 -5 10 -7 15 -4 5 4 9 1 9 -4 0 -6 12 -11 28 -10 15 0
20 3 12 6 -8 2 -22 7 -30 10 -27 11 -40 11 -34 2z"/>
<path d="M4300 3576 c0 -2 7 -7 16 -10 8 -3 12 -2 9 4 -6 10 -25 14 -25 6z"/>
<path d="M4245 3551 c-3 -5 0 -13 6 -17 7 -4 9 -3 5 4 -3 6 3 12 16 15 23 4
23 4 1 6 -12 0 -24 -3 -28 -8z"/>
<path d="M4180 3541 c0 -5 5 -13 10 -16 6 -3 10 -2 10 4 0 5 -4 13 -10 16 -5
3 -10 2 -10 -4z"/>
<path d="M4490 3521 c0 -25 6 -27 13 -6 4 8 2 17 -3 20 -6 4 -10 -3 -10 -14z"/>
<path d="M2900 3519 c0 -5 5 -7 10 -4 6 3 10 8 10 11 0 2 -4 4 -10 4 -5 0 -10
-5 -10 -11z"/>
<path d="M2936 3518 c3 -4 -2 -11 -10 -14 -9 -3 -16 -11 -16 -16 0 -7 5 -6 13
1 8 6 17 7 23 1 6 -6 15 -6 24 0 12 8 10 10 -9 10 -18 0 -21 3 -12 13 8 10 7
14 -4 14 -8 0 -12 -4 -9 -9z"/>
<path d="M2996 3518 c3 -5 10 -6 15 -3 13 9 11 12 -6 12 -8 0 -12 -4 -9 -9z"/>
<path d="M2820 3510 c-9 -6 -10 -10 -3 -10 6 0 15 5 18 10 8 12 4 12 -15 0z"/>
<path d="M4136 3479 c3 -5 12 -9 21 -9 19 0 9 13 -12 16 -8 1 -13 -2 -9 -7z"/>
<path d="M4200 3480 c12 -8 12 -10 -5 -11 -11 0 -14 -3 -7 -6 6 -2 12 -9 12
-15 0 -6 -7 -7 -16 -4 -13 5 -14 4 -6 -7 7 -8 9 -16 6 -20 -3 -3 3 -10 13 -16
15 -7 20 -7 20 4 0 7 -7 11 -16 8 -9 -2 -3 3 12 12 27 16 28 17 10 32 -10 8
-11 11 -3 7 13 -7 13 -5 1 9 -7 9 -19 17 -25 17 -6 0 -4 -5 4 -10z"/>
<path d="M2865 3471 c-6 -11 9 -23 19 -14 9 9 7 23 -3 23 -6 0 -12 -4 -16 -9z"/>
<path d="M2900 3448 c0 -4 9 -10 21 -13 19 -7 20 -7 2 -21 -19 -14 -15 -18 11
-8 9 3 16 12 16 20 0 8 5 14 12 14 6 0 8 3 4 8 -10 9 -66 9 -66 0z"/>
<path d="M2960 3407 c0 -16 6 -23 20 -24 11 -1 20 2 20 7 0 5 8 7 18 4 14 -5
15 -4 2 5 -8 6 -23 11 -33 11 -10 0 -15 5 -12 10 3 6 1 10 -4 10 -6 0 -11 -10
-11 -23z"/>
<path d="M4155 3400 c3 -5 -2 -10 -12 -10 -17 -1 -17 -1 0 -11 13 -8 22 -8 29
-1 11 11 3 32 -13 32 -6 0 -7 -4 -4 -10z"/>
<path d="M2930 3390 c-9 -6 -10 -10 -3 -10 6 0 15 5 18 10 8 12 4 12 -15 0z"/>
<path d="M3048 3363 c6 -2 18 -2 25 0 6 3 1 5 -13 5 -14 0 -19 -2 -12 -5z"/>
<path d="M4056 3322 c-2 -4 4 -9 15 -9 11 -1 17 2 14 8 -7 11 -22 12 -29 1z"/>
<path d="M3050 3246 c0 -2 7 -6 15 -10 8 -3 15 -1 15 4 0 6 -7 10 -15 10 -8 0
-15 -2 -15 -4z"/>
<path d="M3917 3243 c-3 -5 1 -19 9 -33 l14 -25 -6 30 c-8 35 -10 39 -17 28z"/>
<path d="M3203 3233 c9 -2 15 -9 12 -14 -3 -5 1 -6 10 -2 13 5 14 7 3 14 -7 5
-20 8 -28 8 -11 -1 -10 -3 3 -6z"/>
<path d="M3096 3221 c-4 -5 3 -7 14 -4 23 6 26 13 6 13 -8 0 -17 -4 -20 -9z"/>
<path d="M3810 3190 c-6 -11 -16 -17 -22 -14 -7 4 -8 2 -4 -5 6 -9 11 -9 21
-1 10 8 14 7 18 -7 2 -10 4 -3 3 14 -1 39 -2 39 -16 13z"/>
<path d="M3202 3179 c1 -13 8 -23 13 -21 15 3 12 35 -3 40 -9 3 -13 -3 -10
-19z"/>
<path d="M1002 3153 c59 -6 87 -69 57 -125 -9 -17 -17 -19 -49 -14 -36 6 -39
4 -44 -22 -13 -60 -25 -207 -18 -213 4 -4 23 -4 42 -1 32 5 33 6 10 12 -31 7
-41 54 -14 64 25 9 52 -2 59 -25 11 -34 18 -13 20 64 4 104 13 117 80 117 68
0 105 -14 105 -39 0 -11 5 -23 10 -26 6 -4 8 -10 5 -15 -7 -11 27 -30 54 -30
11 0 22 4 26 10 11 18 -8 62 -31 71 -27 10 -44 45 -44 90 l0 30 -62 -7 c-104
-13 -113 -12 -116 14 -4 28 -50 53 -94 50 -33 -1 -33 -1 4 -5z"/>
<path d="M3666 3125 c-9 -26 -7 -32 5 -12 6 10 9 21 6 23 -2 3 -7 -2 -11 -11z"/>
<path d="M4910 3020 c0 -3 28 -16 61 -30 34 -14 77 -39 95 -56 29 -27 34 -38
35 -80 0 -40 2 -45 10 -26 18 47 -5 126 -41 137 -11 3 -24 14 -30 24 -9 19
-53 34 -102 36 -16 0 -28 -2 -28 -5z"/>
<path d="M5265 2800 c-8 -13 -1 -24 14 -19 6 3 7 10 2 18 -6 10 -10 10 -16 1z"/>
<path d="M5090 2786 c0 -2 7 -9 15 -16 12 -10 15 -10 15 4 0 9 -7 16 -15 16
-8 0 -15 -2 -15 -4z"/>
<path d="M5211 2758 c0 -10 -5 -18 -11 -18 -5 0 -10 -9 -10 -20 0 -11 5 -20
11 -20 5 0 7 5 4 10 -3 6 1 10 9 10 9 0 16 -6 16 -12 1 -15 30 21 30 35 0 5
-9 7 -19 4 -13 -3 -21 1 -24 12 -4 14 -5 14 -6 -1z"/>
<path d="M5140 2750 c0 -5 5 -10 10 -10 6 0 10 5 10 10 0 6 -4 10 -10 10 -5 0
-10 -4 -10 -10z"/>
<path d="M5065 2720 c-5 -8 -2 -18 8 -25 10 -7 17 -17 17 -24 0 -6 5 -11 10
-11 15 0 11 23 -9 49 -14 18 -20 21 -26 11z"/>
<path d="M5132 2698 c1 -30 5 -33 27 -19 16 11 6 48 -13 48 -9 0 -14 -11 -14
-29z"/>
<path d="M5065 2642 c2 -15 4 -29 4 -32 2 -9 21 25 21 36 0 7 -6 14 -14 17
-11 4 -14 -1 -11 -21z"/>
<path d="M5125 2650 c-3 -5 -2 -10 3 -10 6 0 13 -7 16 -16 5 -12 2 -15 -9 -10
-9 3 -14 2 -10 -3 3 -5 -3 -17 -12 -27 -17 -17 -16 -17 20 -11 41 6 41 6 28
-41 -13 -43 -5 -41 14 4 14 34 13 38 -5 64 -11 15 -20 33 -20 38 0 16 -18 24
-25 12z"/>
<path d="M5102 2630 c0 -14 2 -19 5 -12 2 6 2 18 0 25 -3 6 -5 1 -5 -13z"/>
<path d="M5174 2637 c-8 -21 2 -35 16 -21 5 5 6 15 0 24 -8 12 -10 12 -16 -3z"/>
<path d="M5127 2545 c-4 -8 -2 -17 2 -20 5 -2 11 4 14 15 6 23 -8 27 -16 5z"/>
<path d="M5300 2470 c0 -13 18 -22 24 -11 3 5 -1 11 -9 15 -8 3 -15 1 -15 -4z"/>
<path d="M5418 2463 c6 -2 18 -2 25 0 6 3 1 5 -13 5 -14 0 -19 -2 -12 -5z"/>
<path d="M5145 2450 c-7 -12 2 -30 16 -30 12 0 12 27 0 35 -5 3 -12 1 -16 -5z"/>
<path d="M5250 2450 c8 -5 20 -10 25 -10 6 0 3 5 -5 10 -8 5 -19 10 -25 10 -5
0 -3 -5 5 -10z"/>
<path d="M5560 2438 c0 -19 37 -31 47 -15 3 7 2 9 -2 4 -5 -4 -17 0 -27 10
-16 14 -18 14 -18 1z"/>
<path d="M5446 2417 c3 -10 9 -15 12 -12 3 3 0 11 -7 18 -10 9 -11 8 -5 -6z"/>
<path d="M5290 2401 c0 -5 9 -13 21 -16 14 -5 19 -13 16 -26 -5 -19 17 -28 27
-11 9 15 -6 51 -19 46 -7 -3 -16 -1 -20 5 -8 13 -25 14 -25 2z"/>
<path d="M5407 2399 c7 -7 15 -10 18 -7 3 3 -2 9 -12 12 -14 6 -15 5 -6 -5z"/>
<path d="M2295 2361 c-3 -5 -1 -12 4 -15 5 -3 11 1 15 9 6 16 -9 21 -19 6z"/>
<path d="M5698 2353 c7 -3 16 -2 19 1 4 3 -2 6 -13 5 -11 0 -14 -3 -6 -6z"/>
<path d="M468 2323 c7 -3 16 -2 19 1 4 3 -2 6 -13 5 -11 0 -14 -3 -6 -6z"/>
<path d="M413 2313 c9 -2 23 -2 30 0 6 3 -1 5 -18 5 -16 0 -22 -2 -12 -5z"/>
<path d="M5665 2310 c-3 -5 1 -10 9 -10 9 0 16 5 16 10 0 6 -4 10 -9 10 -6 0
-13 -4 -16 -10z"/>
<path d="M335 2300 l-20 -9 20 0 c11 0 27 4 35 9 13 9 13 10 0 9 -8 0 -24 -4
-35 -9z"/>
<path d="M5806 2295 c25 -19 40 -19 24 0 -7 8 -20 15 -28 15 -13 0 -12 -3 4
-15z"/>
<path d="M2278 2293 c7 -3 16 -2 19 1 4 3 -2 6 -13 5 -11 0 -14 -3 -6 -6z"/>
<path d="M2310 2290 c0 -5 5 -10 10 -10 6 0 10 5 10 10 0 6 -4 10 -10 10 -5 0
-10 -4 -10 -10z"/>
<path d="M2340 2296 c0 -10 28 -13 41 -5 10 6 7 9 -13 9 -16 0 -28 -2 -28 -4z"/>
<path d="M5686 2293 c-18 -5 -18 -6 5 -19 18 -10 20 -13 7 -14 -10 0 -18 -4
-18 -10 0 -11 32 -1 42 14 20 30 7 40 -36 29z"/>
<path d="M5750 2280 c20 -13 33 -13 25 0 -3 6 -14 10 -23 10 -15 0 -15 -2 -2
-10z"/>
<path d="M5225 2270 c3 -5 11 -10 16 -10 6 0 7 5 4 10 -3 6 -11 10 -16 10 -6
0 -7 -4 -4 -10z"/>
<path d="M5578 2273 c6 -2 18 -2 25 0 6 3 1 5 -13 5 -14 0 -19 -2 -12 -5z"/>
<path d="M130 2260 c-34 -7 -34 -7 -5 -8 17 0 39 3 50 8 24 10 4 10 -45 0z"/>
<path d="M5816 2255 c7 -17 45 -30 66 -22 7 2 -4 12 -26 21 -47 20 -47 20 -40
1z"/>
<path d="M5630 2250 c20 -13 33 -13 25 0 -3 6 -14 10 -23 10 -15 0 -15 -2 -2
-10z"/>
<path d="M5190 2240 c0 -5 5 -10 11 -10 5 0 7 5 4 10 -3 6 -8 10 -11 10 -2 0
-4 -4 -4 -10z"/>
<path d="M5578 2243 c7 -3 16 -2 19 1 4 3 -2 6 -13 5 -11 0 -14 -3 -6 -6z"/>
<path d="M538 2233 c7 -3 16 -2 19 1 4 3 -2 6 -13 5 -11 0 -14 -3 -6 -6z"/>
<path d="M2296 2232 c-3 -4 8 -13 25 -19 17 -7 31 -7 35 -2 3 5 -4 9 -15 9
-12 0 -21 5 -21 10 0 12 -17 13 -24 2z"/>
<path d="M4970 2230 c0 -5 5 -10 11 -10 5 0 7 5 4 10 -3 6 -8 10 -11 10 -2 0
-4 -4 -4 -10z"/>
<path d="M479 2226 c-2 -3 -47 -9 -99 -15 -131 -14 -222 -28 -307 -47 -70 -15
-73 -17 -73 -45 0 -28 2 -29 48 -30 149 -5 191 -9 224 -23 21 -9 43 -16 50
-16 7 0 35 -9 63 -19 27 -11 64 -25 82 -31 74 -27 47 -53 -117 -111 -124 -43
-192 -49 -276 -24 -27 8 -55 15 -61 15 -10 0 -13 -195 -13 -940 l0 -940 324 0
324 0 20 58 c11 31 34 95 52 142 87 236 200 569 251 738 6 18 19 81 29 140 10
59 21 115 25 125 9 21 -5 22 -71 2 -65 -19 -252 -55 -287 -55 -40 0 -65 32
-96 125 -15 44 -41 103 -57 130 -41 69 -36 82 38 96 58 12 61 14 80 57 20 44
20 53 8 276 -7 127 -17 237 -22 244 -6 6 -20 12 -33 12 -16 0 -26 10 -38 41
-9 22 -22 39 -29 38 -7 -2 -40 1 -73 5 -66 9 -63 13 35 41 25 7 36 14 24 14
-11 1 -23 -1 -25 -3z m-412 -498 c-3 -8 -6 -5 -6 6 -1 11 2 17 5 13 3 -3 4
-12 1 -19z m83 -141 c0 -10 5 -28 11 -39 17 -32 -4 -42 -28 -14 -12 13 -19 27
-16 30 4 3 1 6 -5 6 -16 0 -25 39 -12 55 7 9 8 15 0 20 -5 3 -10 11 -10 17 0
6 13 -5 30 -23 16 -19 30 -42 30 -52z m40 -117 c11 -13 17 -35 16 -59 l-1 -38
50 28 c74 41 156 71 179 65 14 -3 37 -35 66 -88 57 -105 72 -145 74 -187 1
-30 -3 -35 -29 -43 -43 -12 -287 19 -298 38 -4 7 -16 14 -27 14 -24 0 -70 55
-70 85 0 23 19 50 41 57 15 5 4 39 -21 68 -22 26 -25 36 -10 45 5 3 7 12 3 20
-8 21 7 18 27 -5z"/>
<path d="M5217 2216 c-3 -8 2 -16 14 -19 10 -3 19 -1 19 4 0 5 -5 9 -11 9 -5
0 -7 5 -4 10 3 6 2 10 -3 10 -6 0 -12 -6 -15 -14z"/>
<path d="M2175 2163 c2 -25 0 -43 -5 -43 -6 0 -10 5 -10 10 0 6 -7 10 -16 10
-14 0 -14 -2 0 -15 9 -9 21 -15 28 -14 7 1 20 1 28 0 13 -1 13 -2 0 -11 -13
-8 -12 -10 4 -10 17 0 16 -2 -5 -18 -13 -10 -32 -21 -41 -25 -10 -3 -18 -13
-18 -22 0 -8 -4 -15 -8 -15 -5 0 -9 -6 -9 -14 0 -12 5 -11 23 2 13 9 22 22 19
29 -2 7 2 10 12 6 14 -6 14 -8 -3 -22 -11 -9 -23 -24 -27 -34 -4 -10 -11 -16
-16 -13 -18 12 -39 -5 -34 -27 4 -17 3 -19 -6 -7 -9 12 -11 12 -16 -2 -4 -10
-4 -23 0 -30 4 -7 -2 -3 -13 10 -21 22 -42 29 -42 13 0 -5 -3 -17 -6 -26 -5
-13 -1 -15 20 -11 26 5 50 -14 28 -22 -15 -5 -16 -32 -2 -32 6 0 10 5 10 10 0
6 8 5 19 -2 16 -10 27 -9 55 5 20 9 36 22 36 27 0 6 4 9 8 6 4 -2 19 4 32 15
22 17 22 20 5 16 -79 -19 -107 -17 -112 9 -3 16 35 25 44 12 3 -6 1 -8 -5 -4
-6 3 -13 2 -17 -4 -4 -6 7 -10 27 -10 22 0 28 3 20 9 -18 11 13 24 39 16 9 -3
20 -1 24 5 3 5 -1 10 -9 10 -9 0 -16 7 -16 15 0 8 -5 15 -11 15 -6 0 -9 -7 -5
-15 3 -9 0 -15 -8 -15 -9 0 -12 7 -9 20 3 11 8 20 12 20 4 0 16 7 27 16 18 15
18 15 -3 9 -25 -7 -32 9 -8 19 8 3 21 -2 30 -10 16 -16 39 -10 32 9 -2 7 3 17
12 24 15 11 14 12 -1 13 -9 0 -20 -4 -23 -10 -12 -19 -30 -10 -31 15 -1 14 2
22 7 19 11 -7 49 14 49 27 0 6 -7 9 -15 5 -8 -3 -25 -1 -37 4 -13 5 -17 9 -10
9 25 2 11 20 -20 27 -32 7 -32 7 -10 17 29 13 28 25 -3 23 -24 -1 -25 -4 -20
-43z m30 -13 c3 -5 1 -10 -4 -10 -6 0 -11 5 -11 10 0 6 2 10 4 10 3 0 8 -4 11
-10z"/>
<path d="M2230 2204 c0 -13 18 -39 24 -34 2 3 -2 14 -10 24 -8 11 -14 16 -14
10z"/>
<path d="M5176 2201 c-4 -5 -2 -12 3 -15 5 -4 12 -2 15 3 4 5 2 12 -3 15 -5 4
-12 2 -15 -3z"/>
<path d="M5340 2200 c0 -12 26 -25 65 -33 29 -6 30 -6 5 5 -14 7 -29 18 -33
25 -9 15 -37 17 -37 3z"/>
<path d="M2130 2196 c0 -2 7 -6 15 -10 8 -3 15 -1 15 4 0 6 -7 10 -15 10 -8 0
-15 -2 -15 -4z"/>
<path d="M2344 2189 c-3 -5 4 -9 15 -9 12 0 24 0 28 -1 4 0 9 3 10 8 4 11 -46
13 -53 2z"/>
<path d="M5288 2178 c5 -5 16 -8 23 -6 8 3 3 7 -10 11 -17 4 -21 3 -13 -5z"/>
<path d="M5715 2180 c3 -5 13 -10 21 -10 8 0 12 5 9 10 -3 6 -13 10 -21 10 -8
0 -12 -4 -9 -10z"/>
<path d="M2274 2155 c-17 -13 -17 -14 -2 -15 9 0 20 5 23 11 11 17 0 20 -21 4z"/>
<path d="M5170 2160 c8 -5 20 -10 25 -10 6 0 3 5 -5 10 -8 5 -19 10 -25 10 -5
0 -3 -5 5 -10z"/>
<path d="M5060 2142 c0 -7 4 -10 10 -7 5 3 19 1 30 -5 17 -9 20 -8 20 7 0 13
-8 18 -30 18 -18 0 -30 -5 -30 -13z"/>
<path d="M5130 2155 c0 -15 18 -40 24 -34 3 3 -1 14 -9 25 -8 10 -14 15 -15 9z"/>
<path d="M5380 2155 c0 -21 79 -70 92 -57 6 6 -2 12 -21 15 -17 4 -30 12 -29
18 2 6 -7 15 -19 20 -13 4 -23 6 -23 4z"/>
<path d="M5810 2145 c0 -9 6 -12 15 -9 8 4 15 7 15 9 0 2 -7 5 -15 9 -9 3 -15
0 -15 -9z"/>
<path d="M5200 2125 c7 -8 16 -12 21 -9 13 8 1 24 -18 24 -13 0 -13 -3 -3 -15z"/>
<path d="M5980 2120 c-13 -8 -12 -10 3 -10 9 0 17 5 17 10 0 12 -1 12 -20 0z"/>
<path d="M2070 2110 c0 -5 4 -10 9 -10 6 0 13 5 16 10 3 6 -1 10 -9 10 -9 0
-16 -4 -16 -10z"/>
<path d="M2118 2113 c7 -3 16 -2 19 1 4 3 -2 6 -13 5 -11 0 -14 -3 -6 -6z"/>
<path d="M2726 2108 c3 -4 9 -8 15 -8 5 0 9 4 9 8 0 5 -7 9 -15 9 -8 0 -12 -4
-9 -9z"/>
<path d="M4970 2110 c0 -5 3 -9 8 -9 19 3 33 -2 27 -11 -3 -5 -1 -10 4 -10 17
0 13 27 -5 34 -23 9 -34 7 -34 -4z"/>
<path d="M5180 2109 c0 -5 5 -7 10 -4 6 3 10 8 10 11 0 2 -4 4 -10 4 -5 0 -10
-5 -10 -11z"/>
<path d="M5510 2110 c0 -5 9 -10 19 -10 11 0 28 -3 38 -6 16 -5 16 -4 -1 10
-22 18 -56 21 -56 6z"/>
<path d="M4940 2100 c0 -5 5 -10 10 -10 6 0 10 5 10 10 0 6 -4 10 -10 10 -5 0
-10 -4 -10 -10z"/>
<path d="M5616 2091 c10 -10 25 -16 32 -13 8 3 3 10 -14 18 -36 19 -41 18 -18
-5z"/>
<path d="M5094 2086 c-13 -10 -14 -15 -4 -21 7 -4 15 -3 19 3 4 7 12 8 21 2
19 -12 30 -13 30 -2 0 5 -11 14 -24 20 -18 8 -28 8 -42 -2z"/>
<path d="M5385 2090 c-3 -5 1 -10 9 -10 9 0 16 5 16 10 0 6 -4 10 -9 10 -6 0
-13 -4 -16 -10z"/>
<path d="M5340 2080 c0 -5 5 -10 11 -10 5 0 7 5 4 10 -3 6 -8 10 -11 10 -2 0
-4 -4 -4 -10z"/>
<path d="M5700 2086 c0 -2 7 -6 15 -10 8 -3 15 -1 15 4 0 6 -7 10 -15 10 -8 0
-15 -2 -15 -4z"/>
<path d="M2077 2072 c-18 -4 -18 -4 0 -18 17 -13 17 -13 -4 -14 -12 0 -24 6
-27 13 -3 6 -4 3 -3 -8 2 -16 9 -20 36 -18 44 3 61 9 61 24 0 6 -9 9 -19 6
-11 -3 -21 0 -23 7 -2 6 -11 10 -21 8z"/>
<path d="M5165 2059 c-4 -6 -13 -8 -21 -5 -8 3 -14 -1 -14 -10 0 -8 4 -12 10
-9 5 3 18 1 29 -4 14 -8 20 -7 25 4 3 9 -1 15 -10 15 -8 0 -12 5 -9 10 3 6 4
10 1 10 -3 0 -8 -5 -11 -11z"/>
<path d="M5385 2060 c3 -5 8 -10 11 -10 2 0 4 5 4 10 0 6 -5 10 -11 10 -5 0
-7 -4 -4 -10z"/>
<path d="M4870 2049 c0 -5 7 -9 15 -9 7 0 18 -6 22 -14 6 -11 10 -11 20 -1 9
9 4 14 -23 23 -19 6 -34 6 -34 1z"/>
<path d="M5070 2051 c0 -6 4 -13 10 -16 6 -3 7 1 4 9 -7 18 -14 21 -14 7z"/>
<path d="M5410 2050 c0 -5 5 -10 10 -10 6 0 10 5 10 10 0 6 -4 10 -10 10 -5 0
-10 -4 -10 -10z"/>
<path d="M5660 2050 c19 -13 30 -13 30 0 0 6 -10 10 -22 10 -19 0 -20 -2 -8
-10z"/>
<path d="M4846 2032 c-3 -5 1 -9 9 -9 8 0 12 4 9 9 -3 4 -7 8 -9 8 -2 0 -6 -4
-9 -8z"/>
<path d="M5874 2025 c25 -19 37 -19 30 0 -4 8 -16 15 -28 15 -21 -1 -21 -1 -2
-15z"/>
<path d="M5115 2020 c3 -5 15 -15 27 -21 16 -8 19 -8 16 2 -2 6 -14 16 -27 20
-14 6 -20 5 -16 -1z"/>
<path d="M5363 1997 c-2 -28 -2 -29 13 -11 11 14 17 15 20 7 3 -7 10 -13 16
-13 13 0 -9 28 -31 40 -13 6 -16 2 -18 -23z"/>
<path d="M6010 2020 c0 -9 14 -14 33 -11 4 1 18 -4 30 -10 22 -12 22 -12 3 10
-19 21 -66 29 -66 11z"/>
<path d="M5027 2005 c-4 -8 -3 -16 1 -19 4 -3 9 4 9 15 2 23 -3 25 -10 4z"/>
<path d="M5530 2011 c0 -5 11 -11 25 -13 20 -4 23 -3 14 8 -13 16 -39 19 -39
5z"/>
<path d="M5630 2010 c19 -13 30 -13 30 0 0 6 -10 10 -22 10 -19 0 -20 -2 -8
-10z"/>
<path d="M5695 2011 c-17 -7 -17 -8 8 -13 19 -4 27 -1 27 8 0 15 -6 16 -35 5z"/>
<path d="M2070 2003 c0 -4 5 -15 10 -23 8 -13 10 -13 10 2 0 9 -4 20 -10 23
-5 3 -10 3 -10 -2z"/>
<path d="M4965 2000 c3 -5 16 -10 28 -10 18 0 19 2 7 10 -20 13 -43 13 -35 0z"/>
<path d="M5478 2003 c7 -3 16 -2 19 1 4 3 -2 6 -13 5 -11 0 -14 -3 -6 -6z"/>
<path d="M5940 2000 c-11 -7 -7 -10 18 -10 20 0 31 4 27 10 -8 13 -26 13 -45
0z"/>
<path d="M2670 1990 c-13 -8 -12 -10 3 -10 9 0 17 5 17 10 0 12 -1 12 -20 0z"/>
<path d="M5213 1979 c8 -13 16 -15 28 -8 11 5 19 5 22 -1 3 -6 4 -5 3 2 -1 7
-16 15 -33 19 -28 6 -30 4 -20 -12z"/>
<path d="M5443 1983 c9 -9 20 -13 24 -9 4 4 1 11 -7 16 -25 16 -35 11 -17 -7z"/>
<path d="M5514 1993 c3 -3 -2 -12 -12 -19 -9 -8 -12 -14 -5 -14 6 0 15 5 18
10 4 6 16 8 27 4 12 -4 18 -2 14 4 -3 5 -15 12 -27 15 -11 3 -18 3 -15 0z"/>
<path d="M6115 1990 c-3 -5 1 -10 10 -10 9 0 13 5 10 10 -3 6 -8 10 -10 10 -2
0 -7 -4 -10 -10z"/>
<path d="M1980 1986 c0 -2 9 -6 20 -9 11 -3 18 -1 14 4 -5 9 -34 13 -34 5z"/>
<path d="M2230 1975 c0 -8 4 -15 10 -15 5 0 7 7 4 15 -4 8 -8 15 -10 15 -2 0
-4 -7 -4 -15z"/>
<path d="M2740 1986 c0 -2 7 -7 16 -10 8 -3 12 -2 9 4 -6 10 -25 14 -25 6z"/>
<path d="M5687 1974 c3 -7 0 -14 -6 -14 -6 0 -11 -5 -11 -10 0 -6 8 -5 20 2
24 15 25 24 6 31 -10 4 -13 1 -9 -9z"/>
<path d="M5592 1971 c-11 -7 -11 -9 1 -14 9 -3 18 1 21 9 6 16 -2 18 -22 5z"/>
<path d="M1916 1962 c-3 -5 1 -9 9 -9 8 0 12 4 9 9 -3 4 -7 8 -9 8 -2 0 -6 -4
-9 -8z"/>
<path d="M1970 1962 c-8 -3 -22 -15 -32 -27 -18 -23 -84 -34 -72 -12 3 7 -3 2
-14 -11 -13 -14 -22 -18 -24 -10 -3 8 -13 2 -28 -15 -13 -15 -28 -27 -33 -27
-4 0 -15 -7 -23 -15 -14 -13 -13 -15 3 -15 17 -1 17 -1 1 -14 -10 -7 -15 -15
-12 -18 2 -3 -16 -11 -41 -17 -27 -7 -45 -17 -45 -26 0 -8 -9 -19 -20 -25 -11
-6 -20 -16 -20 -22 0 -6 -13 -24 -30 -39 -16 -16 -25 -29 -18 -29 6 0 0 -13
-15 -28 -15 -15 -27 -35 -27 -44 0 -9 -7 -18 -15 -22 -8 -3 -12 -12 -9 -21 3
-8 1 -15 -5 -15 -6 0 -11 -7 -11 -15 0 -8 -4 -15 -9 -15 -4 0 -7 -11 -6 -25 2
-15 -3 -29 -13 -35 -11 -6 -12 -10 -4 -10 10 0 10 -5 1 -22 -14 -27 -19 -74
-23 -233 -2 -88 -8 -129 -20 -153 -14 -26 -19 -30 -30 -20 -7 7 -11 19 -9 25
3 7 0 13 -7 13 -8 0 -10 -9 -5 -27 5 -21 1 -31 -22 -49 l-28 -22 23 -66 c12
-35 22 -72 22 -81 0 -9 5 -13 10 -10 6 3 10 -1 10 -9 0 -8 -4 -17 -9 -20 -5
-3 -7 -16 -3 -28 3 -13 1 -19 -5 -15 -11 7 -19 34 -59 207 -15 63 -31 119 -35
125 -5 5 -9 18 -9 28 0 10 -7 35 -16 55 -21 48 -31 72 -39 97 l-6 20 -15 -20
c-8 -11 -12 -29 -9 -40 10 -36 26 -129 30 -178 3 -27 8 -54 12 -60 4 -7 8 -36
9 -65 1 -29 6 -58 12 -65 5 -6 12 -32 16 -57 3 -25 13 -72 21 -105 9 -33 19
-71 22 -85 3 -14 9 -29 13 -35 4 -5 11 -26 15 -45 4 -19 13 -42 20 -50 16 -18
45 -97 45 -123 0 -10 4 -16 9 -13 4 3 13 -13 20 -35 7 -22 19 -43 27 -46 8 -3
14 -13 14 -23 0 -11 5 -22 10 -25 6 -3 10 -12 10 -18 -1 -7 -9 -2 -20 11 -25
30 -53 22 -74 -20 -18 -35 -11 -58 10 -31 12 17 13 16 14 -9 0 -20 -4 -26 -15
-22 -10 4 -15 0 -15 -16 0 -16 4 -20 19 -15 13 4 20 0 24 -14 5 -19 14 -20
141 -20 112 0 138 2 143 15 4 12 8 12 21 2 21 -18 263 -15 707 7 241 13 265
13 265 -1 0 -7 5 -16 10 -19 7 -4 9 2 5 17 -6 23 -5 23 84 23 89 1 89 1 80
-22 -5 -13 -6 -23 -4 -23 3 0 9 10 14 23 7 19 17 24 50 25 23 1 41 -2 41 -7 0
-5 20 -3 44 4 26 8 89 13 153 13 60 -1 115 2 121 6 7 4 12 2 12 -5 0 -9 4 -8
15 1 12 10 18 9 31 -4 15 -16 18 -16 35 0 14 12 29 15 56 11 85 -14 137 -28
143 -37 4 -6 14 -8 23 -4 12 4 17 1 17 -10 0 -19 40 -22 58 -4 9 9 12 9 12 0
0 -8 23 -12 75 -12 l75 0 -6 28 c-7 25 -6 26 10 13 14 -12 19 -12 25 -2 6 10
19 9 60 -4 28 -10 51 -21 51 -26 0 -5 559 -9 1315 -9 1217 0 1315 1 1315 17 0
15 1 15 18 0 22 -20 42 -22 42 -5 0 9 3 9 12 0 8 -8 47 -12 109 -12 l97 0 7
36 c4 22 2 41 -4 47 -15 15 -14 27 4 27 9 0 15 9 15 24 0 13 -7 29 -15 36 -18
15 -20 31 -2 24 7 -2 13 3 13 13 0 10 4 28 8 40 5 16 2 23 -11 26 -17 4 -17 5
0 6 9 0 17 8 17 16 0 8 4 15 10 15 8 0 8 23 1 73 0 4 -13 7 -27 7 -21 0 -24 4
-19 20 5 14 2 20 -9 20 -9 0 -16 5 -16 11 0 5 5 7 10 4 6 -3 10 -1 10 4 0 6 9
2 20 -9 11 -11 20 -25 20 -30 0 -6 7 -10 15 -10 17 0 19 12 5 26 -7 7 -8 19
-1 37 10 26 -1 38 -14 17 -3 -5 -11 -10 -17 -10 -7 0 -7 4 0 13 12 15 22 126
11 132 -3 3 -12 -2 -19 -10 -15 -18 -42 -19 -57 -4 -8 8 -13 5 -18 -11 -5 -15
-2 -26 6 -31 11 -7 10 -9 -5 -9 -14 0 -17 -5 -13 -22 4 -12 0 -26 -7 -32 -8
-6 -17 -21 -21 -34 -5 -17 -2 -22 12 -23 16 0 15 -2 -4 -16 -13 -8 -23 -21
-23 -27 0 -6 -7 -24 -15 -40 -9 -16 -13 -36 -10 -44 3 -8 0 -21 -6 -29 -8 -9
-9 -17 -2 -24 13 -13 4 -59 -12 -59 -8 0 -11 -8 -8 -21 4 -14 0 -25 -11 -31
-9 -5 -16 -13 -16 -18 0 -10 -36 -50 -45 -50 -3 0 -5 12 -5 26 0 19 4 25 15
21 8 -4 17 -2 20 3 4 6 2 10 -4 10 -5 0 -3 22 5 52 7 29 11 61 8 71 -3 9 0 17
6 17 6 0 9 4 6 8 -3 5 6 41 20 80 13 39 26 91 28 114 1 24 8 56 15 73 7 16 10
40 8 52 -2 13 0 23 4 23 5 0 7 14 5 30 -2 17 1 33 6 36 5 3 6 19 3 35 -5 20
-2 34 9 45 13 12 14 20 5 36 -8 16 -8 22 2 29 22 13 24 176 3 224 -10 22 -16
49 -15 60 2 15 0 17 -9 8 -7 -6 -12 -23 -12 -37 0 -14 -4 -26 -8 -26 -9 0 -21
-59 -23 -120 -1 -25 -6 -48 -10 -51 -17 -13 -35 -84 -25 -97 8 -9 7 -11 -6 -6
-11 4 -16 1 -16 -10 0 -14 -7 -11 -35 11 -26 21 -31 29 -20 35 11 7 11 13 -2
39 -14 28 -14 31 6 48 16 14 18 20 8 31 -10 10 -8 10 10 1 38 -19 49 -12 15
11 -20 12 -31 26 -28 34 3 8 1 25 -4 39 -8 20 -6 25 6 25 14 0 14 3 4 15 -7 8
-9 15 -4 15 5 0 8 15 7 32 -1 18 -2 43 -2 56 -1 17 -7 22 -26 22 -22 0 -24 -2
-14 -27 8 -21 7 -28 -5 -35 -11 -6 -12 -15 -6 -38 8 -29 -11 -90 -29 -90 -4 0
-7 -10 -7 -22 1 -17 -4 -22 -16 -20 -13 2 -16 -2 -11 -13 3 -10 13 -15 24 -12
12 3 16 0 12 -8 -2 -8 -25 -18 -50 -23 -44 -10 -46 -9 -77 24 -17 19 -31 39
-31 46 0 6 -7 13 -15 15 -13 4 -13 3 0 -6 13 -10 13 -11 0 -11 -31 0 -96 26
-116 46 -11 11 -64 33 -117 49 -53 15 -94 32 -90 38 3 5 -3 6 -16 2 -13 -4
-86 12 -194 43 -94 27 -197 55 -227 62 -30 6 -77 18 -105 26 -62 16 -355 85
-490 114 -55 12 -129 29 -165 37 -36 9 -76 17 -90 19 -76 8 -211 26 -325 44
-134 20 -224 26 -525 34 -96 3 -303 10 -460 16 -316 12 -485 6 -675 -25 -16
-3 -77 -11 -135 -19 -58 -8 -170 -26 -249 -40 -155 -28 -381 -51 -412 -41 -11
4 -19 2 -19 -4 0 -6 -7 -11 -15 -11 -8 0 -15 5 -15 11 0 6 -11 4 -27 -5 -16
-8 -54 -20 -86 -26 -39 -8 -69 -21 -91 -41 -35 -30 -119 -55 -162 -46 -13 2
-22 1 -19 -3 4 -7 -64 -34 -70 -28 -3 2 24 59 58 126 34 68 71 140 82 162 11
22 25 40 30 40 6 0 21 23 35 51 14 29 35 56 48 62 12 6 22 13 22 17 0 4 20 20
45 36 25 15 45 33 45 40 0 14 58 25 66 12 8 -12 24 0 24 18 0 8 -4 12 -10 9
-5 -3 -10 -4 -10 -1 0 3 17 14 38 25 24 13 31 20 18 21 -12 0 -16 5 -12 16 3
9 6 18 6 20 0 3 5 2 10 -1 6 -4 10 -3 9 2 -1 4 -1 10 1 13 1 3 3 17 5 32 4 27
-9 39 -35 30z m13 -41 c-4 -3 -8 -13 -8 -21 0 -8 -9 -16 -20 -19 -17 -3 -18
-1 -6 13 7 9 11 23 7 31 -3 9 0 15 9 15 8 0 16 6 16 13 1 6 3 4 6 -7 3 -10 1
-21 -4 -25z m-786 -793 c-3 -8 -6 -5 -6 6 -1 11 2 17 5 13 3 -3 4 -12 1 -19z
m5604 -141 c-10 -9 -11 -8 -5 6 3 10 9 15 12 12 3 -3 0 -11 -7 -18z m-286 -98
c11 -17 0 -20 -21 -4 -17 13 -17 14 -2 15 9 0 20 -5 23 -11z m55 5 c0 -8 -19
-13 -24 -6 -3 5 1 9 9 9 8 0 15 -2 15 -3z m281 -417 c-13 -13 -26 -3 -16 12 3
6 11 8 17 5 6 -4 6 -10 -1 -17z m39 -111 c0 -3 -4 -8 -10 -11 -5 -3 -10 -1
-10 4 0 6 5 11 10 11 6 0 10 -2 10 -4z m-80 -32 c0 -8 -4 -12 -10 -9 -5 3 -10
10 -10 16 0 5 5 9 10 9 6 0 10 -7 10 -16z m54 -79 c3 -8 1 -15 -4 -15 -6 0
-10 7 -10 15 0 8 2 15 4 15 2 0 6 -7 10 -15z m-194 -59 c0 -3 -4 -8 -10 -11
-5 -3 -10 -1 -10 4 0 6 5 11 10 11 6 0 10 -2 10 -4z m75 -76 c-3 -5 -10 -10
-16 -10 -5 0 -9 5 -9 10 0 6 7 10 16 10 8 0 12 -4 9 -10z m-5225 -55 c0 -8 -4
-15 -10 -15 -5 0 -10 7 -10 15 0 8 5 15 10 15 6 0 10 -7 10 -15z m5178 -15 c7
-13 18 -17 29 -13 14 5 15 3 7 -6 -9 -10 -18 -9 -43 3 -31 17 -41 36 -18 36 7
0 18 -9 25 -20z m-2978 0 c0 -5 -5 -10 -11 -10 -5 0 -7 5 -4 10 3 6 8 10 11
10 2 0 4 -4 4 -10z m2935 -10 c3 -5 1 -10 -4 -10 -6 0 -11 5 -11 10 0 6 2 10
4 10 3 0 8 -4 11 -10z m-5215 -20 c0 -5 -5 -10 -11 -10 -5 0 -7 5 -4 10 3 6 8
10 11 10 2 0 4 -4 4 -10z"/>
<path d="M4930 1959 c0 -5 5 -7 10 -4 6 3 10 8 10 11 0 2 -4 4 -10 4 -5 0 -10
-5 -10 -11z"/>
<path d="M4980 1960 c-9 -6 -10 -10 -3 -10 6 0 15 5 18 10 8 12 4 12 -15 0z"/>
<path d="M5299 1957 c9 -11 10 -17 2 -17 -6 0 -11 -4 -11 -10 0 -5 7 -10 16
-10 8 0 13 4 10 9 -4 5 -2 11 4 13 6 2 0 9 -12 17 -21 13 -22 13 -9 -2z"/>
<path d="M4815 1953 c-11 -3 -24 -10 -30 -15 -7 -8 -6 -9 2 -4 7 4 22 2 34 -5
17 -8 20 -8 14 1 -4 7 -1 16 6 21 15 9 7 10 -26 2z"/>
<path d="M5540 1955 c0 -15 18 -40 24 -34 3 3 -1 14 -9 25 -8 10 -14 15 -15 9z"/>
<path d="M5920 1950 c20 -13 33 -13 25 0 -3 6 -14 10 -23 10 -15 0 -15 -2 -2
-10z"/>
<path d="M5070 1935 c0 -8 3 -15 8 -16 4 0 17 -2 30 -3 29 -3 28 0 -8 19 -27
14 -30 14 -30 0z"/>
<path d="M5240 1940 c0 -6 7 -10 15 -10 8 0 15 2 15 4 0 2 -7 6 -15 10 -8 3
-15 1 -15 -4z"/>
<path d="M5360 1940 c0 -5 7 -10 16 -10 8 0 12 5 9 10 -3 6 -10 10 -16 10 -5
0 -9 -4 -9 -10z"/>
<path d="M5453 1937 c1 -5 20 -10 40 -12 24 -1 36 2 34 9 -2 6 -20 11 -41 12
-20 1 -35 -3 -33 -9z"/>
<path d="M5722 1945 c10 -11 48 -14 48 -4 0 5 -12 9 -27 9 -14 0 -24 -2 -21
-5z"/>
<path d="M4963 1933 c9 -2 15 -9 12 -14 -3 -5 1 -6 10 -2 13 5 14 7 3 14 -7 5
-20 8 -28 8 -11 -1 -10 -3 3 -6z"/>
<path d="M5625 1930 c3 -5 16 -10 28 -9 21 0 21 1 2 9 -28 12 -37 12 -30 0z"/>
<path d="M2200 1920 c0 -5 5 -10 10 -10 6 0 10 5 10 10 0 6 -4 10 -10 10 -5 0
-10 -4 -10 -10z"/>
<path d="M5798 1923 c6 -2 12 -11 12 -19 0 -8 7 -14 15 -14 16 0 16 20 0 32
-5 4 -17 7 -25 7 -10 0 -11 -2 -2 -6z"/>
<path d="M4689 1904 c-23 -14 -23 -14 12 -8 24 4 39 2 44 -6 5 -9 1 -10 -16
-6 -19 6 -21 5 -7 -4 17 -10 48 -4 48 10 0 4 -13 12 -28 18 -21 7 -35 6 -53
-4z"/>
<path d="M5247 1914 c-18 -18 -6 -34 26 -33 17 0 25 3 17 6 -8 4 -20 13 -25
20 -6 8 -14 11 -18 7z"/>
<path d="M5460 1910 c-12 -7 -12 -10 -1 -10 7 0 11 -6 7 -15 -4 -10 1 -15 17
-16 25 -1 34 -3 63 -13 15 -6 20 -14 17 -27 -5 -17 -2 -19 21 -13 22 5 26 3
26 -15 0 -12 5 -21 11 -21 5 0 7 5 3 12 -5 8 0 9 15 5 l23 -6 -24 22 c-13 13
-32 21 -44 19 -17 -3 -20 1 -18 27 2 25 -3 31 -29 40 -38 14 -60 14 -52 1 3
-5 16 -10 27 -10 12 0 19 -3 15 -6 -10 -11 -55 5 -59 21 -2 10 -7 12 -18 5z"/>
<path d="M6170 1910 c0 -6 7 -10 15 -10 8 0 15 2 15 4 0 2 -7 6 -15 10 -8 3
-15 1 -15 -4z"/>
<path d="M4795 1900 c3 -5 19 -10 36 -10 16 0 29 5 29 10 0 6 -16 10 -36 10
-21 0 -33 -4 -29 -10z"/>
<path d="M5147 1904 c-3 -3 -23 -6 -44 -6 -34 0 -36 -1 -13 -10 35 -13 80 -17
80 -7 0 5 -5 9 -11 9 -5 0 -7 5 -4 10 7 11 2 14 -8 4z"/>
<path d="M5360 1899 c0 -5 5 -7 10 -4 6 3 10 8 10 11 0 2 -4 4 -10 4 -5 0 -10
-5 -10 -11z"/>
<path d="M5924 1895 c11 -8 24 -15 30 -15 5 0 1 7 -10 15 -10 8 -23 14 -29 14
-5 0 -1 -6 9 -14z"/>
<path d="M4522 1888 c-17 -17 -15 -25 8 -31 14 -4 24 2 31 16 7 12 8 19 4 15
-5 -4 -13 -3 -20 2 -7 6 -16 5 -23 -2z"/>
<path d="M4622 1891 c-10 -6 -8 -10 10 -15 34 -11 67 -13 62 -4 -3 4 -12 8
-20 8 -8 0 -14 5 -14 10 0 12 -20 13 -38 1z"/>
<path d="M5400 1890 c0 -5 5 -10 11 -10 5 0 7 5 4 10 -3 6 -8 10 -11 10 -2 0
-4 -4 -4 -10z"/>
<path d="M5710 1890 c8 -5 26 -9 40 -9 l25 1 -25 8 c-14 4 -32 8 -40 9 -13 1
-13 0 0 -9z"/>
<path d="M5635 1880 c3 -5 14 -10 23 -10 15 0 15 2 2 10 -20 13 -33 13 -25 0z"/>
<path d="M6030 1881 c8 -5 26 -12 40 -16 24 -7 24 -7 5 9 -11 8 -29 15 -40 15
-16 0 -17 -1 -5 -8z"/>
<path d="M6245 1880 c3 -5 8 -10 11 -10 2 0 4 5 4 10 0 6 -5 10 -11 10 -5 0
-7 -4 -4 -10z"/>
<path d="M5190 1865 c0 -9 6 -12 15 -9 8 4 15 7 15 9 0 2 -7 5 -15 9 -9 3 -15
0 -15 -9z"/>
<path d="M1998 1863 c7 -3 16 -2 19 1 4 3 -2 6 -13 5 -11 0 -14 -3 -6 -6z"/>
<path d="M4970 1866 c0 -2 9 -6 20 -9 11 -3 18 -1 14 4 -5 9 -34 13 -34 5z"/>
<path d="M5720 1860 c0 -5 5 -10 10 -10 6 0 10 5 10 10 0 6 -4 10 -10 10 -5 0
-10 -4 -10 -10z"/>
<path d="M5825 1860 c3 -5 13 -10 21 -10 8 0 12 5 9 10 -3 6 -13 10 -21 10 -8
0 -12 -4 -9 -10z"/>
<path d="M4758 1853 c6 -2 18 -2 25 0 6 3 1 5 -13 5 -14 0 -19 -2 -12 -5z"/>
<path d="M2631 1834 c0 -11 3 -14 6 -6 3 7 2 16 -1 19 -3 4 -6 -2 -5 -13z"/>
<path d="M4816 1835 c4 -8 8 -15 10 -15 2 0 4 7 4 15 0 8 -4 15 -10 15 -5 0
-7 -7 -4 -15z"/>
<path d="M4985 1840 c3 -5 1 -10 -5 -10 -17 0 -3 -17 19 -23 19 -5 19 -4 4 19
-14 23 -31 35 -18 14z"/>
<path d="M5460 1846 c0 -2 7 -6 15 -10 8 -3 15 -1 15 4 0 6 -7 10 -15 10 -8 0
-15 -2 -15 -4z"/>
<path d="M4900 1830 c19 -13 30 -13 30 0 0 6 -10 10 -22 10 -19 0 -20 -2 -8
-10z"/>
<path d="M6142 1823 c2 -9 10 -19 18 -21 13 -5 13 -3 0 13 -14 17 -13 17 9 10
16 -5 21 -4 17 4 -12 18 -48 13 -44 -6z"/>
<path d="M5638 1823 c7 -3 16 -2 19 1 4 3 -2 6 -13 5 -11 0 -14 -3 -6 -6z"/>
<path d="M5290 1811 c0 -12 39 -25 47 -17 4 3 -1 6 -10 6 -9 0 -17 5 -17 10 0
6 -4 10 -10 10 -5 0 -10 -4 -10 -9z"/>
<path d="M5730 1810 c0 -5 5 -10 11 -10 5 0 7 5 4 10 -3 6 -8 10 -11 10 -2 0
-4 -4 -4 -10z"/>
<path d="M5504 1793 c4 -8 2 -13 -5 -13 -7 0 -4 -6 6 -14 18 -13 18 -14 -10
-10 -25 4 -27 3 -10 -5 32 -15 42 -12 48 14 2 14 2 23 -1 20 -3 -2 -12 1 -20
8 -13 9 -14 9 -8 0z"/>
<path d="M5782 1780 c0 -14 2 -19 5 -12 2 6 2 18 0 25 -3 6 -5 1 -5 -13z"/>
<path d="M5866 1781 c-3 -5 1 -11 9 -15 8 -3 15 -1 15 4 0 13 -18 22 -24 11z"/>
<path d="M2531 1764 c0 -11 3 -14 6 -6 3 7 2 16 -1 19 -3 4 -6 -2 -5 -13z"/>
<path d="M4815 1770 c3 -5 8 -10 11 -10 2 0 4 5 4 10 0 6 -5 10 -11 10 -5 0
-7 -4 -4 -10z"/>
<path d="M4955 1770 c3 -5 8 -10 11 -10 2 0 4 5 4 10 0 6 -5 10 -11 10 -5 0
-7 -4 -4 -10z"/>
<path d="M5649 1773 c-1 -4 -1 -11 -1 -14 1 -3 -11 -4 -26 -1 -26 4 -26 3 -7
-10 26 -19 105 -33 83 -15 -8 7 -22 20 -31 30 -9 10 -18 15 -18 10z"/>
<path d="M5700 1753 c8 -3 19 -11 23 -17 6 -7 7 -6 4 4 -2 8 -12 16 -23 17
-13 2 -15 1 -4 -4z"/>
<path d="M5020 1741 c0 -6 4 -13 10 -16 6 -3 7 1 4 9 -7 18 -14 21 -14 7z"/>
<path d="M5250 1740 c0 -5 5 -10 11 -10 5 0 7 5 4 10 -3 6 -8 10 -11 10 -2 0
-4 -4 -4 -10z"/>
<path d="M5385 1736 c11 -8 24 -12 28 -9 11 7 -12 23 -32 23 -11 0 -9 -4 4
-14z"/>
<path d="M5145 1730 c3 -5 8 -10 11 -10 2 0 4 5 4 10 0 6 -5 10 -11 10 -5 0
-7 -4 -4 -10z"/>
<path d="M5461 1714 c0 -11 3 -14 6 -6 3 7 2 16 -1 19 -3 4 -6 -2 -5 -13z"/>
<path d="M5498 1723 c7 -3 16 -2 19 1 4 3 -2 6 -13 5 -11 0 -14 -3 -6 -6z"/>
<path d="M5180 1702 c6 -13 14 -21 18 -18 3 4 -2 14 -12 24 -18 16 -18 16 -6
-6z"/>
<path d="M2835 1700 c-3 -5 -1 -10 4 -10 6 0 11 5 11 10 0 6 -2 10 -4 10 -3 0
-8 -4 -11 -10z"/>
<path d="M5500 1695 c0 -8 7 -15 16 -15 14 0 14 3 4 15 -7 8 -14 15 -16 15 -2
0 -4 -7 -4 -15z"/>
<path d="M5830 1701 c0 -5 7 -12 16 -15 24 -9 28 -7 14 9 -14 17 -30 20 -30 6z"/>
<path d="M4070 1690 c0 -5 5 -10 11 -10 5 0 7 5 4 10 -3 6 -8 10 -11 10 -2 0
-4 -4 -4 -10z"/>
<path d="M5230 1685 c-14 -16 -3 -20 19 -6 8 5 9 11 3 15 -5 3 -15 -1 -22 -9z"/>
<path d="M5285 1690 c-11 -5 -15 -9 -8 -9 6 -1 18 -4 27 -7 11 -4 16 -1 16 10
0 18 -6 19 -35 6z"/>
<path d="M4780 1674 c0 -8 5 -12 10 -9 6 4 8 11 5 16 -9 14 -15 11 -15 -7z"/>
<path d="M5350 1682 c0 -5 6 -9 13 -9 6 0 20 -4 30 -8 9 -4 17 -3 17 3 0 5
-10 12 -22 16 -31 8 -38 7 -38 -2z"/>
<path d="M5566 1675 c4 -8 10 -12 15 -9 14 8 10 24 -6 24 -9 0 -12 -6 -9 -15z"/>
<path d="M5436 1671 c-4 -7 -5 -15 -2 -18 9 -9 19 4 14 18 -4 11 -6 11 -12 0z"/>
<path d="M5695 1670 c-19 -8 -19 -9 3 -9 12 -1 22 4 22 9 0 6 -1 10 -2 9 -2 0
-12 -4 -23 -9z"/>
<path d="M4518 1663 c7 -3 16 -2 19 1 4 3 -2 6 -13 5 -11 0 -14 -3 -6 -6z"/>
<path d="M4596 1659 c4 -7 44 0 44 7 0 2 -11 3 -24 2 -14 -1 -23 -5 -20 -9z"/>
<path d="M3577 1653 c-13 -12 -7 -22 12 -20 15 1 17 4 9 14 -12 15 -13 15 -21
6z"/>
<path d="M5640 1650 c0 -5 5 -10 10 -10 6 0 10 5 10 10 0 6 -4 10 -10 10 -5 0
-10 -4 -10 -10z"/>
<path d="M5735 1641 c-3 -5 -1 -12 4 -15 5 -3 11 1 15 9 6 16 -9 21 -19 6z"/>
<path d="M3390 1630 c0 -5 -9 -10 -21 -10 -22 0 -22 -21 1 -28 7 -3 10 0 6 7
-4 6 -1 11 7 11 8 0 17 7 21 15 3 8 1 15 -4 15 -6 0 -10 -4 -10 -10z"/>
<path d="M5180 1630 c8 -5 20 -10 25 -10 6 0 3 5 -5 10 -8 5 -19 10 -25 10 -5
0 -3 -5 5 -10z"/>
<path d="M5320 1630 c0 -5 5 -10 11 -10 5 0 7 5 4 10 -3 6 -8 10 -11 10 -2 0
-4 -4 -4 -10z"/>
<path d="M1295 1620 c-3 -5 1 -10 10 -10 9 0 13 5 10 10 -3 6 -8 10 -10 10 -2
0 -7 -4 -10 -10z"/>
<path d="M2378 1623 c6 -2 18 -2 25 0 6 3 1 5 -13 5 -14 0 -19 -2 -12 -5z"/>
<path d="M5515 1610 c3 -5 11 -10 16 -10 6 0 7 5 4 10 -3 6 -11 10 -16 10 -6
0 -7 -4 -4 -10z"/>
<path d="M6240 1606 c0 -2 7 -7 16 -10 8 -3 12 -2 9 4 -6 10 -25 14 -25 6z"/>
<path d="M4528 1593 c7 -3 16 -2 19 1 4 3 -2 6 -13 5 -11 0 -14 -3 -6 -6z"/>
<path d="M5420 1596 c0 -2 7 -7 16 -10 8 -3 12 -2 9 4 -6 10 -25 14 -25 6z"/>
<path d="M3304 1578 c-4 -7 -3 -8 4 -4 7 4 12 2 12 -3 0 -6 7 -11 15 -11 20 0
19 16 -1 24 -21 8 -22 8 -30 -6z"/>
<path d="M5470 1570 c0 -5 5 -10 11 -10 5 0 7 5 4 10 -3 6 -8 10 -11 10 -2 0
-4 -4 -4 -10z"/>
<path d="M1115 1509 c-23 -73 -53 -187 -61 -235 -25 -165 -31 -229 -22 -241 5
-7 4 -13 -3 -15 -9 -3 -14 -40 -16 -124 -4 -173 -9 -228 -20 -248 -11 -21 -6
-56 8 -56 11 0 0 -52 -12 -61 -5 -3 -5 -18 -1 -35 4 -16 7 -48 7 -71 -1 -24 2
-43 6 -43 4 0 9 -9 12 -20 3 -11 1 -20 -4 -20 -5 0 -4 -12 1 -26 13 -33 13
-31 -10 -37 -13 -3 -20 -13 -20 -29 0 -18 2 -20 10 -8 8 12 10 11 10 -5 0 -12
-5 -26 -12 -33 -9 -9 -9 -15 0 -24 17 -17 15 -25 -10 -33 -21 -6 -21 -8 -4
-12 10 -3 23 0 29 6 6 6 15 11 19 11 14 0 8 -23 -9 -36 -10 -7 -18 -24 -18
-37 -1 -22 2 -24 22 -16 31 12 29 3 -8 -32 l-31 -29 115 0 116 0 -1 52 c-1 32
3 53 10 56 7 2 12 8 12 14 0 6 -7 7 -16 4 -9 -3 -12 -2 -9 4 12 20 12 90 0
107 -9 12 -10 23 -3 36 13 25 -1 123 -19 139 -13 11 -13 13 2 18 16 6 16 7 1
22 -10 11 -12 18 -5 20 15 5 2 84 -16 102 -8 7 -11 17 -7 20 8 9 10 86 1 81
-3 -3 -4 15 -1 40 3 27 0 51 -7 59 -6 7 -11 27 -11 42 0 16 -2 162 -4 324 -3
177 -1 314 5 342 7 29 7 53 1 64 -7 13 -13 5 -27 -37z"/>
<path d="M4880 1550 c0 -5 5 -10 11 -10 5 0 7 5 4 10 -3 6 -8 10 -11 10 -2 0
-4 -4 -4 -10z"/>
<path d="M5450 1520 c8 -5 20 -10 25 -10 6 0 3 5 -5 10 -8 5 -19 10 -25 10 -5
0 -3 -5 5 -10z"/>
<path d="M5684 1485 c22 -17 40 -20 32 -6 -3 5 -16 11 -28 14 -22 6 -22 5 -4
-8z"/>
<path d="M1255 1471 c-6 -11 9 -23 19 -14 9 9 7 23 -3 23 -6 0 -12 -4 -16 -9z"/>
<path d="M5640 1470 c0 -5 7 -10 15 -10 8 0 15 5 15 10 0 6 -7 10 -15 10 -8 0
-15 -4 -15 -10z"/>
<path d="M6694 1415 c11 -8 22 -12 25 -9 6 6 -19 24 -34 24 -5 -1 -1 -7 9 -15z"/>
<path d="M6340 1380 c0 -15 21 -23 32 -12 6 6 2 11 -11 15 -12 3 -21 1 -21 -3z"/>
<path d="M5370 1370 c0 -6 7 -10 15 -10 8 0 15 2 15 4 0 2 -7 6 -15 10 -8 3
-15 1 -15 -4z"/>
<path d="M1290 1359 c0 -5 5 -7 10 -4 6 3 10 8 10 11 0 2 -4 4 -10 4 -5 0 -10
-5 -10 -11z"/>
<path d="M6385 1350 c3 -5 8 -10 11 -10 2 0 4 5 4 10 0 6 -5 10 -11 10 -5 0
-7 -4 -4 -10z"/>
<path d="M1340 1343 c-8 -3 -26 -14 -39 -24 -18 -15 -20 -19 -7 -19 9 0 16 -3
17 -7 8 -57 6 -85 -7 -97 -27 -27 -14 -34 28 -14 27 13 37 23 29 28 -7 4 -13
30 -14 58 -1 40 -4 48 -14 40 -8 -7 -13 -7 -13 0 0 5 10 17 23 25 23 17 22 19
-3 10z"/>
<path d="M6343 1312 c-37 -6 -35 -30 3 -42 32 -11 34 -13 17 -25 -17 -13 -16
-14 5 -8 12 3 22 10 22 15 0 5 5 6 12 2 7 -4 8 -3 4 4 -4 7 -14 12 -23 12 -10
0 -14 6 -10 20 6 23 0 27 -30 22z"/>
<path d="M1170 1300 c0 -5 5 -10 10 -10 6 0 10 5 10 10 0 6 -4 10 -10 10 -5 0
-10 -4 -10 -10z"/>
<path d="M6617 1264 c-7 -7 3 -37 16 -46 12 -7 37 1 37 12 0 11 -29 40 -39 40
-4 0 -10 -3 -14 -6z"/>
<path d="M6345 1153 c1 -21 6 -46 10 -55 9 -23 29 -24 21 -2 -5 13 -2 15 14
11 28 -7 25 8 -5 31 -29 23 -17 39 16 22 19 -11 20 -10 9 9 -7 14 -21 21 -39
21 -27 0 -29 -2 -26 -37z"/>
<path d="M6925 1169 c-4 -11 -4 -23 -2 -26 9 -8 27 7 27 22 0 23 -18 27 -25 4z"/>
<path d="M1360 1160 c0 -5 -6 -7 -12 -5 -20 8 -39 -42 -23 -55 8 -6 15 -24 17
-38 4 -35 33 -37 32 -2 0 15 -6 24 -13 22 -9 -2 -11 3 -6 15 11 26 18 73 11
73 -3 0 -6 -4 -6 -10z"/>
<path d="M6670 1166 c0 -2 7 -9 15 -16 9 -7 15 -8 15 -2 0 5 -7 12 -15 16 -8
3 -15 4 -15 2z"/>
<path d="M6310 1126 c0 -9 5 -16 10 -16 6 0 10 4 10 9 0 6 -4 13 -10 16 -5 3
-10 -1 -10 -9z"/>
<path d="M6670 1105 c7 -8 17 -15 22 -15 6 0 5 7 -2 15 -7 8 -17 15 -22 15 -6
0 -5 -7 2 -15z"/>
<path d="M6330 1061 c0 -5 10 -13 23 -17 12 -4 25 -12 29 -18 5 -7 8 -4 8 7 0
9 -7 17 -15 17 -8 0 -15 5 -15 10 0 6 -7 10 -15 10 -8 0 -15 -4 -15 -9z"/>
<path d="M6927 989 c-20 -22 -22 -49 -5 -49 9 0 9 -3 0 -12 -7 -7 -12 -18 -12
-25 0 -29 37 23 43 59 7 44 -3 55 -26 27z"/>
<path d="M6480 955 c0 -7 32 -35 41 -35 18 0 9 17 -16 28 -14 6 -25 10 -25 7z"/>
<path d="M6926 875 c-8 -8 -19 -15 -25 -15 -6 0 -11 -7 -11 -15 0 -18 0 -18
37 0 34 17 51 45 28 45 -7 0 -20 -7 -29 -15z"/>
<path d="M6930 821 c-8 -6 -17 -8 -22 -5 -16 10 -37 -42 -35 -87 1 -33 -3 -53
-16 -67 -16 -18 -16 -20 -1 -33 12 -10 18 -11 21 -3 2 7 12 10 21 8 35 -9 47
12 48 83 0 37 4 78 8 91 8 23 0 28 -24 13z"/>
<path d="M7005 749 c-4 -6 -5 -13 -2 -16 7 -7 27 6 27 18 0 12 -17 12 -25 -2z"/>
<path d="M7011 634 c-8 -15 -11 -15 -11 -4 -3 34 -19 -28 -19 -73 -1 -34 5
-56 21 -78 19 -25 20 -33 10 -49 -7 -11 -12 -28 -13 -37 0 -11 -3 -13 -6 -5
-8 20 -18 14 -19 -13 -1 -15 3 -25 12 -25 8 0 14 4 14 9 0 5 16 12 35 15 21 4
35 13 35 22 0 8 7 17 15 20 10 4 12 11 6 23 -5 9 -7 28 -4 42 3 15 -1 30 -10
37 -13 11 -14 6 -9 -33 4 -36 2 -45 -11 -45 -12 0 -15 7 -10 34 4 27 2 35 -13
38 -24 4 -27 48 -3 48 12 0 16 5 13 14 -3 8 -12 12 -20 9 -16 -6 -18 5 -5 26
7 11 12 10 22 -8 8 -11 17 -21 21 -21 15 0 8 21 -16 47 -22 24 -24 24 -35 7z"/>
<path d="M7002 338 c-14 -14 -16 -48 -2 -48 10 0 30 32 30 49 0 14 -13 14 -28
-1z"/>
<path d="M7048 271 c-32 -31 -35 -41 -13 -41 8 0 15 7 15 15 0 7 7 18 16 23 9
5 15 14 13 20 -2 6 -16 -2 -31 -17z"/>
<path d="M1357 251 c-3 -12 -1 -21 3 -21 14 0 19 15 11 29 -6 9 -10 7 -14 -8z"/>
<path d="M7076 235 c-3 -8 -1 -15 4 -15 6 0 10 7 10 15 0 8 -2 15 -4 15 -2 0
-6 -7 -10 -15z"/>
<path d="M1390 206 c0 -8 5 -18 10 -21 6 -3 10 1 10 9 0 8 -4 18 -10 21 -5 3
-10 -1 -10 -9z"/>
<path d="M6990 205 c-14 -16 -10 -18 14 -9 9 3 16 10 16 15 0 14 -16 11 -30
-6z"/>
<path d="M7041 179 c3 -24 -1 -43 -7 -36 -4 4 -15 -8 -25 -26 -9 -17 -22 -31
-28 -29 -6 1 -10 -1 -10 -5 4 -25 -3 -53 -15 -66 -13 -13 -8 -15 40 -16 42 -1
54 2 54 14 0 8 5 15 10 15 6 0 10 9 10 20 0 11 -4 20 -10 20 -5 0 -10 -6 -10
-14 0 -7 -6 -19 -14 -25 -20 -17 -30 16 -11 35 8 9 15 20 15 25 0 13 28 11 32
-2 2 -7 9 -5 17 5 12 14 12 16 -2 10 -13 -5 -18 3 -23 35 -4 23 -11 44 -16 47
-5 3 -9 0 -7 -7z m-41 -133 c0 -3 -4 -8 -10 -11 -5 -3 -10 -1 -10 4 0 6 5 11
10 11 6 0 10 -2 10 -4z"/>
<path d="M1357 163 c-4 -3 -7 -11 -7 -17 0 -6 5 -5 12 2 6 6 9 14 7 17 -3 3
-9 2 -12 -2z"/>
<path d="M6962 140 c0 -14 2 -19 5 -12 2 6 2 18 0 25 -3 6 -5 1 -5 -13z"/>
<path d="M2660 21 c0 -5 5 -13 10 -16 6 -3 10 -2 10 4 0 5 -4 13 -10 16 -5 3
-10 2 -10 -4z"/>
<path d="M3910 10 c0 -5 5 -10 11 -10 5 0 7 5 4 10 -3 6 -8 10 -11 10 -2 0 -4
-4 -4 -10z"/>
<path d="M3878 3 c7 -3 16 -2 19 1 4 3 -2 6 -13 5 -11 0 -14 -3 -6 -6z"/>
</g>
</svg>
